<svg xmlns="http://www.w3.org/2000/svg" viewBox="0 0 20 20"><defs><style>.cls-1{fill:#fff;}.cls-2{fill:none;stroke:#fff;stroke-miterlimit:10;}</style></defs><title>sdb-processors</title><g id="Layer_2" data-name="Layer 2"><g id="Layer_1-2" data-name="Layer 1"><path class="cls-1" d="M17,3V17H3V3H17m0-1H3A1,1,0,0,0,2,3V17a1,1,0,0,0,1,1H17a1,1,0,0,0,1-1V3a1,1,0,0,0-1-1Z"/><path class="cls-1" d="M12,8v4H8V8h4m0-1H8A1,1,0,0,0,7,8v4a1,1,0,0,0,1,1h4a1,1,0,0,0,1-1V8a1,1,0,0,0-1-1Z"/><line class="cls-2" x1="2" y1="4.5" y2="4.5"/><line class="cls-2" x1="2" y1="7.5" y2="7.5"/><line class="cls-2" x1="2" y1="10.5" y2="10.5"/><line class="cls-2" x1="2" y1="13.5" y2="13.5"/><line class="cls-2" x1="2" y1="16.5" y2="16.5"/><line class="cls-2" x1="20" y1="4.5" x2="18" y2="4.5"/><line class="cls-2" x1="20" y1="7.5" x2="18" y2="7.5"/><line class="cls-2" x1="20" y1="10.5" x2="18" y2="10.5"/><line class="cls-2" x1="20" y1="13.5" x2="18" y2="13.5"/><line class="cls-2" x1="20" y1="16.5" x2="18" y2="16.5"/><line class="cls-2" x1="15.5" y1="2" x2="15.5"/><line class="cls-2" x1="12.5" y1="2" x2="12.5"/><line class="cls-2" x1="9.5" y1="2" x2="9.5"/><line class="cls-2" x1="6.5" y1="2" x2="6.5"/><line class="cls-2" x1="3.5" y1="2" x2="3.5"/><line class="cls-2" x1="15.5" y1="20" x2="15.5" y2="18"/><line class="cls-2" x1="12.5" y1="20" x2="12.5" y2="18"/><line class="cls-2" x1="9.5" y1="20" x2="9.5" y2="18"/><line class="cls-2" x1="6.5" y1="20" x2="6.5" y2="18"/><line class="cls-2" x1="3.5" y1="20" x2="3.5" y2="18"/></g></g></svg>