<svg xmlns="http://www.w3.org/2000/svg" viewBox="0 0 129.86 28"><defs><style>.cls-1{fill:#fff;}.cls-2{fill:#29abe2;}.cls-3{fill:#add916;}</style></defs><title>logo-sidebar</title><g id="Layer_2" data-name="Layer 2"><g id="Layer_1-2" data-name="Layer 1"><path class="cls-1" d="M40.89,15.4Q39.69,17,36.76,17t-4.13-1.6a8.35,8.35,0,0,1-1.2-5,8.63,8.63,0,0,1,1.2-5.05q1.2-1.65,4.13-1.65t4.13,1.65a8.63,8.63,0,0,1,1.2,5.05A8.35,8.35,0,0,1,40.89,15.4Zm-6.22-1.66a2.18,2.18,0,0,0,2.09,1,2.18,2.18,0,0,0,2.09-1,7.23,7.23,0,0,0,.56-3.33A7.57,7.57,0,0,0,38.84,7,2.15,2.15,0,0,0,36.76,6,2.15,2.15,0,0,0,34.69,7a7.58,7.58,0,0,0-.57,3.39A7.21,7.21,0,0,0,34.68,13.74Z"/><path class="cls-1" d="M46.63,16.77H44.1V7.32h2.51v.53a4.66,4.66,0,0,1,2.23-.76A3.08,3.08,0,0,1,51.2,8a7.08,7.08,0,0,1,3.17-.89A2.9,2.9,0,0,1,57,8.18a6.39,6.39,0,0,1,.73,3.47v5.12H55.17v-5a4.53,4.53,0,0,0-.26-1.79,1,1,0,0,0-1.06-.58,5.22,5.22,0,0,0-1.47.26l-.28.09q.08,1.42.08,2.15v4.89H49.63V11.92a5.58,5.58,0,0,0-.25-2,1,1,0,0,0-1.08-.58,4.18,4.18,0,0,0-1.45.26l-.23.08Z"/><path class="cls-1" d="M62.48,16.77H59.95V7.32h2.51v.53a4.73,4.73,0,0,1,2.36-.76,2.86,2.86,0,0,1,2.61,1.11,6.48,6.48,0,0,1,.72,3.44v5.12H65.62v-5a4.24,4.24,0,0,0-.28-1.79,1.14,1.14,0,0,0-1.13-.58,4.28,4.28,0,0,0-1.49.26l-.23.08Z"/><path class="cls-1" d="M70.4,6.12V3.55h2.53V6.12Zm0,10.66V7.32h2.53v9.45Z"/><path class="cls-1" d="M75.5,3.92h5a4.74,4.74,0,0,1,3,.8,3.14,3.14,0,0,1,1,2.6A3.81,3.81,0,0,1,84.23,9a3,3,0,0,1-1.1,1.12,2.57,2.57,0,0,1,1.26,1,3.69,3.69,0,0,1,.41,1.89,3.4,3.4,0,0,1-1.1,2.78,4.7,4.7,0,0,1-3.08.91H75.5Zm4.91,2.23h-2.3V9.21h2.32q1.47,0,1.47-1.53A1.34,1.34,0,0,0,80.41,6.15Zm.08,5.25H78.11v3.14h2.38a1.93,1.93,0,0,0,1.26-.34A1.57,1.57,0,0,0,82.15,13Q82.15,11.41,80.49,11.41Z"/><path class="cls-1" d="M94,10.27V14.2a1.51,1.51,0,0,0,.15.63.7.7,0,0,0,.47.25L94.57,17A7.15,7.15,0,0,1,93,16.87a3.47,3.47,0,0,1-1.16-.53,6.29,6.29,0,0,1-2.78.66q-2.93,0-2.93-3.1A2.56,2.56,0,0,1,87,11.76,4.55,4.55,0,0,1,89.46,11l2-.15v-.59a1,1,0,0,0-.26-.8,1.34,1.34,0,0,0-.85-.22l-3.55.15-.07-1.76a14.72,14.72,0,0,1,3.84-.55,3.76,3.76,0,0,1,2.63.76A3.19,3.19,0,0,1,94,10.27Zm-4.25,2.49a1,1,0,0,0-1.06,1.13q0,1,.93,1a6.12,6.12,0,0,0,1.57-.23l.28-.08v-2Z"/><path class="cls-1" d="M96,9.59V7.32h7V9.59l-4,4.91h4v2.27H96V14.51l4-4.91Z"/><path class="cls-1" d="M112.25,10.27V14.2a1.51,1.51,0,0,0,.15.63.7.7,0,0,0,.47.25L112.8,17a7.15,7.15,0,0,1-1.54-.13,3.46,3.46,0,0,1-1.16-.53,6.29,6.29,0,0,1-2.78.66q-2.93,0-2.93-3.1a2.56,2.56,0,0,1,.81-2.14A4.56,4.56,0,0,1,107.7,11l2-.15v-.59a1,1,0,0,0-.26-.8,1.34,1.34,0,0,0-.85-.22l-3.55.15L105,7.65a14.73,14.73,0,0,1,3.85-.55,3.76,3.76,0,0,1,2.63.76A3.19,3.19,0,0,1,112.25,10.27ZM108,12.77a1,1,0,0,0-1.06,1.13q0,1,.93,1a6.13,6.13,0,0,0,1.57-.23l.28-.08v-2Z"/><path class="cls-1" d="M121.91,10.27V14.2a1.51,1.51,0,0,0,.15.63.7.7,0,0,0,.47.25L122.46,17a7.15,7.15,0,0,1-1.54-.13,3.46,3.46,0,0,1-1.16-.53A6.29,6.29,0,0,1,117,17Q114,17,114,13.9a2.56,2.56,0,0,1,.81-2.14,4.56,4.56,0,0,1,2.49-.75l2-.15v-.59a1,1,0,0,0-.26-.8,1.34,1.34,0,0,0-.85-.22l-3.55.15-.08-1.76a14.73,14.73,0,0,1,3.85-.55,3.76,3.76,0,0,1,2.63.76A3.19,3.19,0,0,1,121.91,10.27Zm-4.25,2.49a1,1,0,0,0-1.06,1.13q0,1,.93,1a6.13,6.13,0,0,0,1.57-.23l.28-.08v-2Z"/><path class="cls-1" d="M124.33,16.77V7.32h2.51v1a9.63,9.63,0,0,1,3-1.23V9.65q-1.53.32-2.63.66l-.38.13v6.33Z"/><circle class="cls-2" cx="14" cy="14" r="14"/><path class="cls-3" d="M14,0A13.93,13.93,0,0,0,7.64,1.53a14,14,0,0,1,0,24.94A14,14,0,1,0,14,0Z"/><path class="cls-1" d="M35.13,20.57c-.48,0-.71.14-.71.43a.32.32,0,0,0,.18.29,4.77,4.77,0,0,0,.83.29,2.36,2.36,0,0,1,.91.44,1,1,0,0,1,.26.75,1.16,1.16,0,0,1-.43,1,1.76,1.76,0,0,1-1.11.33,6.76,6.76,0,0,1-1.25-.14l-.23,0,.09-.64a11.77,11.77,0,0,0,1.34.11q.69,0,.69-.53a.34.34,0,0,0-.16-.3,2.42,2.42,0,0,0-.64-.23,2.69,2.69,0,0,1-1.07-.47,1,1,0,0,1-.31-.76,1.06,1.06,0,0,1,.41-.91,1.83,1.83,0,0,1,1.11-.3,8.13,8.13,0,0,1,1.23.12l.24,0-.07.65Q35.5,20.57,35.13,20.57Z"/><path class="cls-1" d="M38.11,24h-.88V21h.87v.17a1.71,1.71,0,0,1,.77-.24,1.12,1.12,0,0,1,.82.28,2.61,2.61,0,0,1,1.1-.28,1,1,0,0,1,.9.35,1.89,1.89,0,0,1,.25,1.1V24h-.88V22.4a1.34,1.34,0,0,0-.09-.57.37.37,0,0,0-.37-.18,1.93,1.93,0,0,0-.51.08l-.1,0c0,.3,0,.53,0,.68V24h-.88V22.46a1.63,1.63,0,0,0-.08-.63.37.37,0,0,0-.37-.18,1.55,1.55,0,0,0-.5.08l-.08,0Z"/><path class="cls-1" d="M45.23,21.94v1.25a.46.46,0,0,0,.05.2.25.25,0,0,0,.16.08l0,.61a2.6,2.6,0,0,1-.53,0,1.23,1.23,0,0,1-.4-.17,2.33,2.33,0,0,1-1,.21.88.88,0,0,1-1-1,.78.78,0,0,1,.28-.68,1.68,1.68,0,0,1,.86-.24l.7,0v-.19a.3.3,0,0,0-.09-.25.49.49,0,0,0-.29-.07l-1.23,0,0-.56A5.56,5.56,0,0,1,44,20.93a1.38,1.38,0,0,1,.91.24A1,1,0,0,1,45.23,21.94Zm-1.47.79q-.37,0-.37.36a.29.29,0,0,0,.32.33,2.26,2.26,0,0,0,.54-.07l.1,0v-.64Z"/><path class="cls-1" d="M46.11,24V19.8H47V24Z"/><path class="cls-1" d="M47.87,24V19.8h.88V24Z"/><path class="cls-1" d="M52.85,21.68H52v1.23a2.43,2.43,0,0,0,0,.25.21.21,0,0,0,.07.13.29.29,0,0,0,.19.05h.5l0,.64a3.65,3.65,0,0,1-.67.09,1.05,1.05,0,0,1-.8-.24,1.38,1.38,0,0,1-.22-.9V21.68h-.39V21h.39v-.83H52V21h.8Z"/><path class="cls-1" d="M54.3,23.24a.69.69,0,0,0,.44.12c.41,0,.77,0,1.09,0l.18,0v.59a6.34,6.34,0,0,1-1.36.17,1.4,1.4,0,0,1-1.07-.36,1.69,1.69,0,0,1-.33-1.17q0-1.61,1.45-1.61t1.43,1.36l-.07.56H54.14A.5.5,0,0,0,54.3,23.24Zm1-1a.76.76,0,0,0-.12-.5.74.74,0,0,0-.87,0,.79.79,0,0,0-.13.5Z"/><path class="cls-1" d="M56.44,21h.93l.52.93.53-.93h.93l-.93,1.47L59.36,24h-.93l-.53-.92-.52.92h-.93l.9-1.51Z"/><path class="cls-1" d="M61.66,21.68h-.8v1.23a2.43,2.43,0,0,0,0,.25.21.21,0,0,0,.07.13.29.29,0,0,0,.19.05h.5l0,.64a3.65,3.65,0,0,1-.67.09,1.05,1.05,0,0,1-.8-.24,1.38,1.38,0,0,1-.22-.9V21.68H59.6V21H60v-.83h.88V21h.8Z"/><path class="cls-1" d="M66.64,24.38a.81.81,0,0,1-.43.76,2.35,2.35,0,0,1-1.17.25,2.82,2.82,0,0,1-1.13-.18.66.66,0,0,1-.39-.65.92.92,0,0,1,.47-.71.5.5,0,0,1-.24-.46.86.86,0,0,1,.2-.4L64,22.9a1,1,0,0,1-.44-.87.94.94,0,0,1,.38-.83,1.73,1.73,0,0,1,1-.26,2.59,2.59,0,0,1,.56.06l.1,0,1.05,0v.64l-.49,0a.71.71,0,0,1,.14.41.93.93,0,0,1-.33.83,1.88,1.88,0,0,1-1,.23l-.27,0a.71.71,0,0,0-.07.25.14.14,0,0,0,.11.13,2.32,2.32,0,0,0,.52,0,2.29,2.29,0,0,1,1.13.2A.78.78,0,0,1,66.64,24.38Zm-2.26.09c0,.17.23.26.69.26s.69-.1.69-.3a.2.2,0,0,0-.12-.21,1.82,1.82,0,0,0-.5-.05l-.59,0A.47.47,0,0,0,64.37,24.46ZM64.43,22q0,.44.5.44t.5-.44q0-.44-.5-.44T64.43,22Z"/><path class="cls-1" d="M67.34,21.34a1.83,1.83,0,0,1,2.31,0A1.74,1.74,0,0,1,70,22.49q0,1.58-1.5,1.58T67,22.49A1.74,1.74,0,0,1,67.34,21.34ZM68,23.17a.64.64,0,0,0,1,0,1.33,1.33,0,0,0,.13-.68,1.29,1.29,0,0,0-.13-.67.65.65,0,0,0-1,0,1.29,1.29,0,0,0-.13.67A1.33,1.33,0,0,0,68,23.17Z"/><path class="cls-1" d="M71.52,23.24a.69.69,0,0,0,.44.12c.41,0,.77,0,1.09,0l.18,0v.59a6.35,6.35,0,0,1-1.36.17,1.4,1.4,0,0,1-1.07-.36,1.69,1.69,0,0,1-.33-1.17q0-1.61,1.45-1.61t1.43,1.36l-.06.56H71.36A.5.5,0,0,0,71.52,23.24Zm1-1a.77.77,0,0,0-.12-.5.74.74,0,0,0-.87,0,.78.78,0,0,0-.13.5Z"/><path class="cls-1" d="M76.33,21.75a11.19,11.19,0,0,0-1.13-.1,1,1,0,0,0-.42.05.18.18,0,0,0-.09.17.16.16,0,0,0,.13.16,5.48,5.48,0,0,0,.65.13,1.5,1.5,0,0,1,.75.29.82.82,0,0,1,.22.64q0,1-1.31,1a6.17,6.17,0,0,1-1-.11l-.21,0,0-.67a11.15,11.15,0,0,0,1.13.1,1.1,1.1,0,0,0,.43-.06.18.18,0,0,0,.11-.17.18.18,0,0,0-.12-.17,3.33,3.33,0,0,0-.63-.13,1.72,1.72,0,0,1-.75-.26.78.78,0,0,1-.25-.66.82.82,0,0,1,.35-.72,1.58,1.58,0,0,1,.91-.24,6.75,6.75,0,0,1,1.05.11l.22,0Z"/><path class="cls-1" d="M79.38,24h-.88V19.8h.88v1.34a1.91,1.91,0,0,1,.81-.22,1,1,0,0,1,.9.35,1.91,1.91,0,0,1,.25,1.09V24h-.88V22.39a1.22,1.22,0,0,0-.1-.56.4.4,0,0,0-.39-.18,1.84,1.84,0,0,0-.51.07l-.08,0Z"/><path class="cls-1" d="M83,23.24a.69.69,0,0,0,.44.12c.41,0,.77,0,1.09,0l.18,0v.59a6.34,6.34,0,0,1-1.36.17,1.4,1.4,0,0,1-1.07-.36A1.69,1.69,0,0,1,82,22.54q0-1.61,1.45-1.61t1.43,1.36l-.07.56H82.84A.5.5,0,0,0,83,23.24Zm1-1a.76.76,0,0,0-.12-.5.74.74,0,0,0-.87,0,.79.79,0,0,0-.13.5Z"/><path class="cls-1" d="M85.46,24V21h.87v.32a3.51,3.51,0,0,1,1-.39v.81c-.35.07-.66.14-.91.21l-.13,0v2Z"/><path class="cls-1" d="M88.77,23.24a.69.69,0,0,0,.44.12q.61,0,1.09,0l.18,0v.59a6.35,6.35,0,0,1-1.36.17,1.4,1.4,0,0,1-1.07-.36,1.69,1.69,0,0,1-.33-1.17q0-1.61,1.45-1.61t1.43,1.36l-.07.56H88.61A.5.5,0,0,0,88.77,23.24Zm1-1a.78.78,0,0,0-.12-.5.56.56,0,0,0-.44-.14.55.55,0,0,0-.44.15.77.77,0,0,0-.13.5Z"/><path class="cls-1" d="M95.55,20.57q-.71,0-.71.43a.32.32,0,0,0,.18.29,4.75,4.75,0,0,0,.83.29,2.36,2.36,0,0,1,.91.44,1,1,0,0,1,.26.75,1.16,1.16,0,0,1-.42,1,1.76,1.76,0,0,1-1.11.33,6.75,6.75,0,0,1-1.25-.14l-.24,0,.09-.64a11.77,11.77,0,0,0,1.34.11q.69,0,.69-.53a.34.34,0,0,0-.16-.3,2.43,2.43,0,0,0-.64-.23,2.68,2.68,0,0,1-1.07-.47,1,1,0,0,1-.31-.76,1.06,1.06,0,0,1,.4-.91,1.84,1.84,0,0,1,1.11-.3,8.14,8.14,0,0,1,1.23.12l.24,0-.07.65Q95.93,20.57,95.55,20.57Z"/><path class="cls-1" d="M98.54,24h-.88V21h.87v.17a1.72,1.72,0,0,1,.77-.24,1.12,1.12,0,0,1,.82.28,2.61,2.61,0,0,1,1.1-.28,1,1,0,0,1,.9.35,1.89,1.89,0,0,1,.25,1.1V24h-.88V22.4a1.32,1.32,0,0,0-.09-.57.37.37,0,0,0-.37-.18,1.92,1.92,0,0,0-.51.08l-.1,0c0,.3,0,.53,0,.68V24h-.88V22.46a1.63,1.63,0,0,0-.08-.63.37.37,0,0,0-.37-.18,1.54,1.54,0,0,0-.5.08l-.08,0Z"/><path class="cls-1" d="M105.66,21.94v1.25a.42.42,0,0,0,.05.2.24.24,0,0,0,.16.08l0,.61a2.59,2.59,0,0,1-.53,0,1.24,1.24,0,0,1-.4-.17,2.33,2.33,0,0,1-1,.21.88.88,0,0,1-1-1,.78.78,0,0,1,.28-.68,1.67,1.67,0,0,1,.86-.24l.7,0v-.19a.3.3,0,0,0-.09-.25.48.48,0,0,0-.29-.07l-1.23,0,0-.56a5.55,5.55,0,0,1,1.33-.17,1.38,1.38,0,0,1,.91.24A1,1,0,0,1,105.66,21.94Zm-1.47.79q-.37,0-.37.36a.29.29,0,0,0,.32.33,2.25,2.25,0,0,0,.54-.07l.1,0v-.64Z"/><path class="cls-1" d="M106.53,24V19.8h.88V24Z"/><path class="cls-1" d="M108.3,24V19.8h.88V24Z"/><path class="cls-1" d="M113.27,21.68h-.8v1.23a2.43,2.43,0,0,0,0,.25.21.21,0,0,0,.07.13.29.29,0,0,0,.19.05h.5l0,.64a3.63,3.63,0,0,1-.67.09,1.05,1.05,0,0,1-.8-.24,1.38,1.38,0,0,1-.22-.9V21.68h-.38V21h.38v-.83h.88V21h.8Z"/><path class="cls-1" d="M114.72,23.24a.69.69,0,0,0,.44.12q.61,0,1.09,0l.18,0v.59a6.34,6.34,0,0,1-1.36.17,1.4,1.4,0,0,1-1.07-.36,1.69,1.69,0,0,1-.33-1.17q0-1.61,1.45-1.61t1.43,1.36l-.07.56h-1.92A.49.49,0,0,0,114.72,23.24Zm1-1a.77.77,0,0,0-.12-.5.74.74,0,0,0-.87,0,.79.79,0,0,0-.13.5Z"/><path class="cls-1" d="M116.86,21h.93l.52.93.53-.93h.93l-.93,1.47.93,1.53h-.93l-.53-.92-.52.92h-.93l.9-1.51Z"/><path class="cls-1" d="M122.09,21.68h-.8v1.23a2.43,2.43,0,0,0,0,.25.21.21,0,0,0,.07.13.29.29,0,0,0,.19.05h.5l0,.64a3.63,3.63,0,0,1-.67.09,1.05,1.05,0,0,1-.8-.24,1.38,1.38,0,0,1-.22-.9V21.68H120V21h.38v-.83h.88V21h.8Z"/></g></g></svg>