<svg xmlns="http://www.w3.org/2000/svg" viewBox="0 0 18.09 21.91"><defs><style>.cls-1{fill:none;stroke:#fff;stroke-miterlimit:10;}.cls-2{fill:#fff;}</style></defs><title>sdb-escrow</title><g id="Layer_2" data-name="Layer 2"><g id="Layer_1-2" data-name="Layer 1"><path class="cls-1" d="M16,14.95a11.7,11.7,0,0,1-5,4.91,14.3,14.3,0,0,0-2,1.39,14.2,14.2,0,0,0-2-1.39,11.7,11.7,0,0,1-5-4.91C.53,11.85.13,7.39.84,1.32a41.55,41.55,0,0,1,16.41,0C18,7.39,17.56,11.85,16,14.95Z"/><path class="cls-2" d="M10.89,11.1a2.18,2.18,0,0,1-.58,1.69,2.45,2.45,0,0,1-1.7.52H8.42l-.16,1.26q-.5,0-.5-.08l.15-1.22-1.57-.17.08-.56q.85.11,1.57.15l.38-2.95a6.24,6.24,0,0,1-.91-.24,2.4,2.4,0,0,1-.63-.35,1.66,1.66,0,0,1-.55-1.42q0-1.9,2.3-1.9h.3l.18-1.39h.5L9.37,5.9l1.35.15,0,.56L9.29,6.47,8.94,9.23a3.39,3.39,0,0,1,1.5.61A1.58,1.58,0,0,1,10.89,11.1ZM7,7.72a1.21,1.21,0,0,0,.32,1,2.77,2.77,0,0,0,1.18.45l.35-2.7H8.63Q7,6.44,7,7.72Zm1.64,5q1.64,0,1.64-1.46a1.27,1.27,0,0,0-.3-1,2.44,2.44,0,0,0-1.06-.43L8.5,12.73Z"/></g></g></svg>