<svg xmlns="http://www.w3.org/2000/svg" viewBox="0 0 95.68 101.65"><defs><style>.cls-1{fill:#eae1d4;}</style></defs><title>bg-bitcoin</title><g id="Layer_2" data-name="Layer 2"><g id="Layer_2-2" data-name="Layer 2"><path class="cls-1" d="M95.68,65.44a26.52,26.52,0,0,0-6-3.25,43.18,43.18,0,0,0-11-2.11A31.12,31.12,0,0,0,87.86,53a23.18,23.18,0,0,0,4.64-8.51,21.11,21.11,0,0,0,.57-9.37,20.81,20.81,0,0,0-5.81-11.41,24.63,24.63,0,0,0-12.4-6.63,40.58,40.58,0,0,0-10.57-.73L61.64,0,48.16,2.18,50.73,18l-8.66,1.4L39.5,3.58,26,5.77l2.56,15.82L0,26.22,2.16,39.54l3.79-.61a13,13,0,0,1,5.25-.14,4.1,4.1,0,0,1,2.19,1.56c.51.72,1,2.51,1.43,5.36l8.69,53.68a20.89,20.89,0,0,1,.31,2.27H95.68ZM37.7,36l10.55-1.71q9.25-1.5,13-.94a10.44,10.44,0,0,1,6.11,2.94,11.17,11.17,0,0,1,2.95,6.19,10.89,10.89,0,0,1-1,6.77,12,12,0,0,1-5.29,5.14q-3.74,2-12,3.37L41.5,59.51ZM77.13,90.68A13.36,13.36,0,0,1,71,96.51a38.45,38.45,0,0,1-10,2.79l-7,1.14a14,14,0,0,1-4.37.32,2.3,2.3,0,0,1-1.35-1.16,26.17,26.17,0,0,1-1.19-5.12L43.78,73.64l12.45-2q8.2-1.33,12.44-.46a12.29,12.29,0,0,1,6.71,3.51,12.86,12.86,0,0,1,3.17,6.93A13.66,13.66,0,0,1,77.13,90.68Z"/></g></g></svg>