<svg xmlns="http://www.w3.org/2000/svg" viewBox="0 0 137.61 133.05"><defs><style>.cls-1{fill:#e0eaee;}.cls-2{fill:#dae9eb;}.cls-3{fill:#dadee0;}</style></defs><title>bg-omnicoin</title><g id="Layer_2" data-name="Layer 2"><g id="Layer_2-2" data-name="Layer 2"><polygon class="cls-1" points="88.17 25.32 88.17 0 113.49 0 113.48 25.31 88.17 25.32"/><polygon class="cls-1" points="0.01 109.8 0 84.5 25.31 84.5 25.31 109.81 0.01 109.8"/><polygon class="cls-2" points="137.6 35.13 137.6 23.13 130.87 15.26 137.6 35.13"/><polygon class="cls-2" points="84.06 54.66 101.49 37.23 75.81 11.55 84.06 54.66"/><polygon class="cls-2" points="54.6 113.57 39.88 98.84 15.18 123.54 54.6 113.57"/><polygon class="cls-2" points="57.86 55.21 45.01 42.36 18.89 68.49 57.86 55.21"/><path class="cls-3" d="M108,84.09a10.39,10.39,0,1,1,0-14.69A10.4,10.4,0,0,1,108,84.09Z"/><path class="cls-3" d="M130,106.12a10.39,10.39,0,1,1,0-14.69A10.39,10.39,0,0,1,130,106.12Z"/><path class="cls-3" d="M84.09,108a10.39,10.39,0,1,1,0-14.7A10.39,10.39,0,0,1,84.09,108Z"/><path class="cls-3" d="M106.13,130a10.39,10.39,0,1,1,0-14.7A10.39,10.39,0,0,1,106.13,130Z"/></g></g></svg>