<svg xmlns="http://www.w3.org/2000/svg" viewBox="0 0 15 14.95"><defs><style>.cls-1{fill:#29abe2;}</style></defs><title>btn-like</title><g id="Layer_2" data-name="Layer 2"><g id="Layer_3" data-name="Layer 3"><g id="Like_2" data-name="Like 2"><path class="cls-1" d="M13.79,8.26a1.2,1.2,0,0,0,.15-2.39L9.68,5.34a7.75,7.75,0,0,0,.89-3.68A1.5,1.5,0,0,0,8.91,0c-.48,0-.62.94-.62.94h0A6.66,6.66,0,0,1,7.55,3C7,4.11,6.24,4,5.35,5a5,5,0,0,0-.57.8.25.25,0,0,0,0,.08L4.68,6l-.1.19c-.54.55-3.11.49-3.47.49A1,1,0,0,0,0,7.75v5.06c0,.77.31,1,1.11,1H3.93a5.45,5.45,0,0,1,1.66.55,14.29,14.29,0,0,0,4.63.55H11.9a1.34,1.34,0,0,0,.93-.39.71.71,0,0,0,.21-.43s0-.19,0-.21a.9.9,0,0,0-.6-1h0l.72,0a1.19,1.19,0,0,0,1.27-1.22,1.16,1.16,0,0,0-1.17-1.14l.38,0a1.18,1.18,0,0,0,.1-2.36Z"/></g></g></g></svg>