<svg xmlns="http://www.w3.org/2000/svg" viewBox="0 0 241.15 49.31"><defs><style>.cls-1{fill:#29abe2;}.cls-1,.cls-2,.cls-3,.cls-4{fill-rule:evenodd;}.cls-2{fill:#6bc63f;}.cls-3{fill:#fff;}.cls-4,.cls-5{fill:#4d4d4d;}</style></defs><title>omni-logo-about</title><g id="Layer_2" data-name="Layer 2"><g id="Layer_2-2" data-name="Layer 2"><path class="cls-1" d="M24.21,0A24.21,24.21,0,1,1,0,24.21,24.21,24.21,0,0,1,24.21,0Z"/><path class="cls-2" d="M24.21,48.42a24.1,24.1,0,0,1-15.7-5.78A24.23,24.23,0,0,0,18.36,39c4-2.73,6.63-9,6.63-9a22.47,22.47,0,0,0,1.08-9.8c-.63-4.4-3.78-9.11-3.78-9.11A27.13,27.13,0,0,0,15.7,5.73,21.19,21.19,0,0,0,11,3.94,24.21,24.21,0,1,1,24.21,48.42Z"/><path class="cls-3" d="M16.27,2.23h.07a1.24,1.24,0,0,0,0-.22,3,3,0,0,1,.89.18l.2,0h.43l.19.06.18,0,.2.09h.21l.15.11,0,.1c-.2,0-.28.16-.48.2l-.4-.06a1.31,1.31,0,0,0-.59.1s-.07.11-.05.14l.08.1c.2.05.31-.08.49-.08l.1.13,0,0a1.92,1.92,0,0,0-.67.3L17,3.49c-.2.12-.17.18-.51.18l.07.25c0,.05-.09.06-.15.09-.33.16-.56,0-.91,0l-.07.09.3.18h0a2,2,0,0,1-.78,0l-.24,0,0,.17c.21,0,.49,0,.62.1l0,.17a.19.19,0,0,1-.16.09L15.06,5h-.18l0,0c0,.06.11.12.1.16a.66.66,0,0,1-.32,0,.55.55,0,0,0-.24,0,.46.46,0,0,1,0,.26c-.07.13-.26.11-.43.08s-.44-.15-.6.06h0a3.66,3.66,0,0,0,.8.14c.09,0,.2,0,.26,0l.06.07v.1l-.1.1L14,6.06a1,1,0,0,1-.28.09l-.15-.23-.14,0-.17-.08v0l0,.13a.7.7,0,0,1-.58-.23h0l.06.18a.22.22,0,0,1-.11.06L12,6c-.08,0-.14-.1-.22-.13s0,.1-.12.15l-.21-.08a.39.39,0,0,1,0-.2c.18,0,.22-.1.36-.13s.15,0,.21,0h0a.48.48,0,0,1-.24-.29h0a.3.3,0,0,1,.18,0,.93.93,0,0,1,.29,0c.12.07.2.2.36.24a.66.66,0,0,0,.4,0h0V5.46l.06-.08h0a1.41,1.41,0,0,1-.48,0,.65.65,0,0,1,0-.26h0a1.85,1.85,0,0,0-.55,0V5c0-.15,0-.25.16-.32a1.48,1.48,0,0,1,.67,0,2.57,2.57,0,0,0,.36.11s.05,0,.08,0h.13l-.4-.21-.23-.09c-.11-.08-.27-.28-.4-.32l0,.06h0l-.17-.22V3.87l0,0,.36,0H13c.17,0,.35.28.49.32a2.18,2.18,0,0,0,.25,0l-.11-.12A1.74,1.74,0,0,1,13.34,4l.14-.2.17-.09h.21l.19-.07.53-.06h0l-.2-.13a.92.92,0,0,0-.48,0c-.14,0-.29.12-.43.16l-.18,0-.09,0L13,3.46a.27.27,0,0,1-.24.07h0A23.89,23.89,0,0,1,15.6,2.2a.25.25,0,0,0,.12.06.39.39,0,0,0,0-.11L16,2h.1l.2.18Zm-1.42,24.7c-.06,0-.07,0-.11,0s-.09,0-.13.05-.26-.11-.28-.14l.06,0a.63.63,0,0,1,.47.14v0Zm.19-5.3v0h0v0Zm0,0v0h0a0,0,0,0,1,0,0Zm.08.2h0a.41.41,0,0,1,0-.13l.06.14Zm.3,4.5c-.11,0-.2,0-.29.06l-.26,0c-.12,0-.23,0-.36,0h0l.05-.06a.14.14,0,0,0,.09-.12c-.08-.06-.26-.06-.35-.11a.25.25,0,0,0-.06-.17c-.05,0-.17,0-.24,0s-.2-.1-.3-.13-.28,0-.38-.08l.13,0h0l0,0c-.27-.07-.27,0-.43.11s-.12,0-.15,0a.14.14,0,0,1-.19.1l0,0,.06-.05a.15.15,0,0,1,0-.13,2.61,2.61,0,0,1,.34-.14l.22,0a2,2,0,0,1,.51.06h.07l.17.14c.14.07.31.05.43.13l.11.12c.11,0,.37.05.44.13l0,.07,0,0a.52.52,0,0,1,.39.13Zm.19.12v0l0,0h.08a1.65,1.65,0,0,1,.29.05c.06,0,.08,0,.12,0h.11a.26.26,0,0,1,.08,0c0,.08.15.06.24.08s.33.16.43.3a.4.4,0,0,1-.08.1c-.06,0-.11-.13-.22-.08a.12.12,0,0,0-.08,0c-.06,0-.09.1-.16.07l-.06-.06a.35.35,0,0,0-.18.22c-.06,0-.12-.11-.16-.15l-.21,0-.21,0s0,0-.09.05-.11,0-.14-.11h0l0,0a.77.77,0,0,0,.52,0v0c-.15-.06,0-.12-.09-.19s-.15-.05-.21-.09Zm1.66.36,0,0a.79.79,0,0,1,.36,0c0,.12-.09.08-.2.09s-.11,0-.18,0a.52.52,0,0,0,0-.12ZM17.34,30v0a.34.34,0,0,0,.16,0h0c0,.05,0,.12,0,.2H17.3v0l.09,0a.1.1,0,0,1,0-.07s0,0-.06,0ZM19.27,18.6c0,.15-.38.21-.43,0s.16-.28.2-.37l.11.08s0,.14-.09.18-.13,0-.12.13l0,0c.11,0,.15-.25.28-.07ZM16.16,46.29c.05,0,.13,0,.17,0a.36.36,0,0,1,0,.08q-1-.36-2-.81l.06,0a.41.41,0,0,0,.12-.13v0l-.13-.07a.39.39,0,0,1,0-.14c0-.14,0-.17.11-.22,0-.06-.08-.13,0-.21a.1.1,0,0,1,.08,0,.4.4,0,0,0,0,0s0,0-.07-.07l0-.1-.09,0c0,.07-.1.1-.17,0s-.06-.11-.08-.17c-.07-.24.14-.34.18-.49v0a.81.81,0,0,0-.06-.26v-.24l-.07-.16h0a.47.47,0,0,0,.13,0,9.3,9.3,0,0,1,.31-.88c0-.08.1-.13.1-.21a.27.27,0,0,1,0-.13l.09-.12,0-.1a2.35,2.35,0,0,1-.05-.53c0-.07.1-.11.12-.19s-.07-.16-.05-.25l.07-.29.06-.09A1.39,1.39,0,0,0,15,39.8l.08-.14,0-.12a.78.78,0,0,1,0-.34L15,39.15v-.09l.07,0a3.23,3.23,0,0,0,0-1.31c0-.07-.17-.07-.23-.13l-.08-.15-.27-.13a2.62,2.62,0,0,1-.83-.54l-.12-.16v-.18c0-.07-.09-.12-.12-.18s-.12-.31-.27-.4c0-.25-.33-.75-.46-.94l-.17-.27c-.09-.08-.22-.1-.32-.18v0l.1,0c0-.15-.13-.2-.15-.35s.38-.26.44-.47c0-.05,0-.11,0-.16s-.16.22-.3,0v0s0,0,0,0a1,1,0,0,0-.06-.29l.17-.09,0-.06c0-.07.09-.08.11-.13s0-.16,0-.2.22,0,.3-.15a.15.15,0,0,0,0-.08l0,0h.12c0-.06,0-.08,0-.16s.18,0,.22-.06l.18-.32-.09-.09,0-.17c0-.08-.06-.14-.06-.22s.06,0,.07,0-.07,0-.08-.11a.23.23,0,0,0,0-.09c0-.07-.1-.11-.14-.17s.06-.1,0-.16l0,0s.06-.09.1-.1-.08-.12-.09-.18h0c.08,0,.1.12.16.19h0s0,0,0,0l0-.1.19-.23.12,0c.06-.17,0-.3.17-.4,0,0,.06,0,.08,0s.05,0,.06.07l0,0a.13.13,0,0,1,.05-.13.3.3,0,0,0,.3,0c0-.05-.1-.15-.08-.22s.06,0,.11,0h0s0,0,0-.07a.13.13,0,0,1-.1,0c-.05-.14-.16-.18-.34-.13a.17.17,0,0,0,0,.08.38.38,0,0,0-.19.11c0,.07.11.08.12.18s-.12.07-.22.05l0,0c0-.06,0-.11-.06-.16h0v.07c-.08,0-.11-.06-.13-.13s-.19-.06-.3,0l0,.06a.19.19,0,0,0-.1-.19h0l.05.07h0a.14.14,0,0,1-.12-.06c.1-.16-.1-.17-.22-.23s0-.09-.06-.13L12.51,29h0l0,.07s.06,0,.07,0l-.06.06h0c0-.1-.14,0-.2-.2s.05-.05.06-.09v0l-.06,0h0v0c-.07,0-.12-.11-.15-.15s-.25-.22-.36-.34v0h.07c0-.05,0-.1-.1-.12a.22.22,0,0,1,0,.08,2.39,2.39,0,0,1-.7-.21c-.11,0-.19,0-.26,0s-.49-.5-.73-.57-.33.11-.52.13a2.22,2.22,0,0,1-.44-.09l-.31-.17-.21,0-.3-.14c-.1-.06-.19-.18-.31-.17l-.32-.09-.18-.21-.2-.1a.67.67,0,0,1-.14-.18l-.05-.06s.08-.06.1-.09,0,0,0-.06,0-.21-.05-.3l0-.08-.48-.56-.15-.11,0-.12-.14-.06-.07-.1s-.07,0-.08,0l0,0a.15.15,0,0,1,0-.17c0-.1-.08-.12-.17-.1-.06-.18-.15-.12-.22-.24s0-.08,0-.11l-.17-.06a1.72,1.72,0,0,1-.48-.89L5,23.16a.15.15,0,0,0,0-.08l-.06,0,0,0c-.08,0-.13-.06-.2-.08s0,.13,0,.19l.06.08v.22c0,.1.17.12.23.2s.06.19.12.25l.12.06a.58.58,0,0,0,.06.21l.1,0c.06.14,0,.24.18.22s0,.17.07.25l.14.27c0,.13,0,.13.07.21l.09-.05.11.18s.07,0,.09.06a.26.26,0,0,1-.12.16l0,0s0-.1,0-.14-.1-.07-.15-.1A1.56,1.56,0,0,1,5.41,25c0-.06,0-.14,0-.2a.45.45,0,0,0-.11-.2l-.11,0-.09-.1c-.13.05-.41-.2-.47-.3s.19,0,.22,0,0-.25-.11-.3a1.75,1.75,0,0,1-.26-.19l-.05-.16s-.07,0-.08-.07,0-.11,0-.15-.15-.14-.09-.26l-.09-.08v-.12c0-.11-.18-.46-.33-.37l0,0s0,0,0-.07c-.17,0-.16-.08-.26-.12H3.24s-.05,0,0-.08a.37.37,0,0,1,0-.12s0,0-.07,0-.27-.24-.28-.41c.06,0,0-.06,0-.1a.29.29,0,0,1-.16-.09c0-.06,0-.08,0-.15v0h0c0,.05,0,.08.09.09v0a.34.34,0,0,1-.1-.17h0a.83.83,0,0,0,0,.09s0,0,0,0l-.28-.32h0s0-.09,0-.12l0-.07c0-.1-.13-.15-.15-.24s.09-.21.06-.37-.17-.38-.11-.49.05,0,.08-.06l0-.1,0-.08a.61.61,0,0,1,.05-.3,1.28,1.28,0,0,0,0-.48h.07l-.1,0v-.2l.06,0-.06,0s0,0,0,0h0c0-.2-.13-.28-.12-.45s.17,0,.25.06.27,0,.26.12l-.09.11h0c.06,0,.07.05.11.06s.13-.18.09-.33l-.06-.19c-.05-.08-.21-.13-.16-.26a.27.27,0,0,1-.14,0,.94.94,0,0,1-.06-.15c-.06,0-.06,0-.13.05s-.1-.14-.12-.27A.5.5,0,0,1,1.75,17v0A23.59,23.59,0,0,1,5.1,10.37a1.17,1.17,0,0,0,.31,0c.17,0,.32-.09.47-.1s.2.08.28.11.28.05.37.16v.06c-.05,0-.09,0-.08.08l.23.2v-.14l.13,0c0-.16-.23-.16-.14-.45A1.1,1.1,0,0,0,7,10.17c0-.05,0-.06.07-.1.24,0,.32.14.62.1a.68.68,0,0,0,.58.18s.07,0,.13,0a2.08,2.08,0,0,0,.67-.06c.09.07.15.16.29.15s.06-.13,0-.17-.19-.05-.32-.09v-.09a.68.68,0,0,1,.4.07,1.41,1.41,0,0,1,.18.05.85.85,0,0,1,0,.22c0,.16.18.2.28.24,0-.17-.12-.35,0-.46s.16,0,.18,0l.13-.16c.06,0,.13,0,.19-.07s0-.15-.1-.15a.34.34,0,0,1-.21,0h0l.06-.1c.1,0,.11-.05.21-.06a.4.4,0,0,0,.14.12V9.53h0c-.2.06-.25-.05-.37-.08l-.1,0c-.16,0-.45-.13-.45-.31A.38.38,0,0,0,9.72,9a.72.72,0,0,0-.19-.14.68.68,0,0,1,.14-.24c.09,0,.11,0,.2.05V8.63a.21.21,0,0,1-.1-.14c.05,0,.05-.07.1-.09a.59.59,0,0,1,.6.22c0,.08,0,.15,0,.23a2,2,0,0,1,.37.32l0,.07a.24.24,0,0,0-.18.06l0,.13c.08,0,.12,0,.18.06a.18.18,0,0,0,.13,0,.33.33,0,0,1,.25.08.58.58,0,0,1-.1.12c0,.06.07.07.1.12a.58.58,0,0,1,0,.29c.22,0,.17-.31.32-.42a.42.42,0,0,1,.33.44h-.14s0,.1,0,.14a2.17,2.17,0,0,0,.3.36.8.8,0,0,0,.22-.09c0-.18.13-.18.19-.3s0-.25.1-.33a.42.42,0,0,0,.21,0v-.1l-.23-.14c0-.06,0-.12,0-.19l.06-.06a1.26,1.26,0,0,1,.47.08l.16,0,.16.14c.06,0,.12,0,.14,0s.07.22,0,.26l-.09.05a.33.33,0,0,1-.11-.12c-.06,0-.09,0-.13.05,0,.28.24.38.38.55a.63.63,0,0,1-.27.38c-.09,0-.15,0-.21.11s-.22-.29-.42-.3l-.07.05h0A.84.84,0,0,1,13,11c-.08,0-.12,0-.2,0s-.19,0-.23-.14a.88.88,0,0,0-.37,0l0,0h0c.06.06.15.08.22.13s-.36.39-.49.35-.13-.1-.2-.14l-.16-.05-.15-.07a.74.74,0,0,0-.29,0h0l.29.09.2.15a1,1,0,0,0,.47.12h0l-.07.2c-.05.08-.29.28-.44.26a1,1,0,0,1-.23-.09c0,.1,0,.18,0,.26a1.07,1.07,0,0,1-.45-.1L10.43,12h0l.25.16c.19.05.33,0,.44.16v.05a.41.41,0,0,1-.18.09c-.11,0-.22,0-.28,0v0h0l.14.08h0c0,.1-.3.18-.39.3s0,.11,0,.13-.1,0-.14.08-.35.77-.18,1c.15.07.19,0,.35,0a1.25,1.25,0,0,1,.22.47v.18c.18,0,.27-.11.46-.08a1.86,1.86,0,0,1,.74.32l.12.17.4.1a2.29,2.29,0,0,1,.21.12c.18.08.64,0,.77.13l-.06.25.06.13c0,.14,0,.23,0,.33s.18.1.16.29a.4.4,0,0,1,.36.3c.14,0,.17.11.27.16a.57.57,0,0,0-.07-.14.2.2,0,0,1,.09-.12c.07,0,.08.1.13.14a.72.72,0,0,0,0-.22c.15-.11,0-.28,0-.42v-.11l0-.17h.06c0-.14-.08-.09-.14-.16a.48.48,0,0,1-.06-.18c.41-.07,1.08-.6.73-1.12-.09-.13-.41-.26-.45-.4a.56.56,0,0,0,.18-.24l0-.09s.08,0,.12-.07l0-.14-.05-.1s0-.07,0-.13h-.2c.06-.1.17-.18.19-.32s-.12-.07-.14-.13a.21.21,0,0,1,.2-.28c.18,0,.31.11.49.14s.42-.12.53-.08a3.35,3.35,0,0,1,.44.33c0,.07,0,.07,0,.13s.27.11.41.14.13,0,.16,0l0,0a.18.18,0,0,1,0,.09c-.2.1.09.51,0,.65h-.1c0,.09,0,.11,0,.16h0c.19-.07.3-.16.44,0a.09.09,0,0,1,0,.06l0,.05c.08,0,.25,0,.32-.09l.09-.16c.09,0,.09.1.14.14h0c0-.21.08-.24.17-.35-.14-.19,0-.12.1-.21l.06-.12h0c.13.06.35.44.46.57s0,.06,0,.12h.08c0,.26.2.13.23.32a.18.18,0,0,0-.09,0,.92.92,0,0,0,.22.16.26.26,0,0,1,0,.09c-.07,0-.19,0-.24,0h0s.09.2.15.22h.09c.07,0,.28.19.28.27l-.06.14c.09,0,.14,0,.24,0a1.14,1.14,0,0,1,.29.14l.3.07c0,.09-.15.09-.27.12s-.15.12-.25.15h-.14a.34.34,0,0,0-.07.19,2.42,2.42,0,0,0,.28-.09c.17-.1.32-.34.55-.12a.2.2,0,0,0,0,.09l0,.05s.1-.06.14-.06.22.09.22.18-.05.13-.09.19l.12.15h0a1.76,1.76,0,0,1-.34.24l-.42,0-.22.25a1.34,1.34,0,0,1-.55.13l-.44,0c-.14,0-.3,0-.46,0a1,1,0,0,0-.4,0c-.18.06-.14.24-.24.3s-.2,0-.27.07a2.08,2.08,0,0,0-.7.81c.16-.13.29-.32.45-.44a3.2,3.2,0,0,1,.74-.32c.24-.09.52-.09.61.14a.79.79,0,0,1-.34.19l-.09,0a.31.31,0,0,0-.17,0h0a.27.27,0,0,1,.23.14l.15-.07v0l.05,0,0,0-.06.06c0,.12,0,.08-.12.16s.12,0,.14,0a.13.13,0,0,0,0,.11s0,0,0,0,.15.13.24.17h0l-.07,0h0s0,0,.07.05h.08l.05,0s.09,0,.15,0h0l0,0h.09s.06-.05.12-.06.05,0,.12.06l.06.06,0,0,0,0v0c.06,0,.1,0,.12,0l-.06,0s0,0,0,0h0v0h-.09v0a1.22,1.22,0,0,0-.37.13s0,0,0,0h0v0l0,0s0,0,0,.06h-.1a.19.19,0,0,1,0,0h0a.08.08,0,0,1,0,0h0l0,0h0s0,.05,0,.1-.13.12-.18.16h0v0a.15.15,0,0,0-.1,0l0,.06s0,0-.07,0l-.05-.09,0,0c0-.08-.06-.16,0-.24s0,0,0,0l-.08.05h0l.11-.06s0,0,0,0h0l0,0h0a1,1,0,0,1,.37-.2v.06l0,0v0a.73.73,0,0,1,.21,0v0a.84.84,0,0,0-.39,0,.08.08,0,0,1,0,0,.27.27,0,0,0,.15-.13h0l-.05,0a.08.08,0,0,0,0-.07l0,.05,0,.06c-.13,0-.18.12-.31.13l-.06,0,0,0-.09.05a.15.15,0,0,0-.16,0l0,0,0,.06,0,0h0v0a.19.19,0,0,1-.14,0s0,0,0,0l0,0s-.05.06-.09.09l0-.05s-.07,0-.11,0v.05l-.08,0h0l0-.06h0a.55.55,0,0,1-.13.2l0,0,0,.06h0v0l0,0s0,0,0,.07h0l0,0v0l-.08,0v.06c-.08,0-.12.17-.17.24s0,0,.08.05v0c-.05,0-.1,0-.11.09s.13.09.15.17l0,0,.08,0v0h0l0-.05h0a.21.21,0,0,1,0,.12l-.2,0a.1.1,0,0,0,0-.06h0a.13.13,0,0,1-.11.08h0s0-.07,0-.08h-.06l0,.11a1.1,1.1,0,0,0-.67.2l0-.12-.05.14s0,0-.06,0v0a.09.09,0,0,0,.08,0,1.55,1.55,0,0,1-.09.28h0c0,.08-.09.16-.14.2h0a.16.16,0,0,0,0-.08c-.1,0-.12-.06-.17-.12l.05-.06h0s0,0-.06.06.07.23.14.26,0,.07,0,.11-.06.08-.09.13l-.06.15h0l0,.1h0v0a.8.8,0,0,1,.1-.21s0,0,0,0h0l0,0,0,0s0,0,0-.06l-.06,0,0,0,0,0h0L15,21v0s0,0-.08,0h0v0h0l0,0v0h0l-.05,0v0s.05,0,.06,0h0l0,0,.07,0,0,0,0,0,0,0s0,0,0,0v0s0,0,0,0h0l0,0v.05h0c.07.13,0,.08,0,.18l0,.1h0a.08.08,0,0,1-.05-.05h0c0,.07.07.07.09.15a.64.64,0,0,1-.14-.1v0s-.05,0-.12,0v0l0,0h0a.16.16,0,0,0,0,.09,1.09,1.09,0,0,1,.28.14s0,.05-.05.07l0,0-.09-.08c0,.07.07.08.14.12h0s0,0,0,.06h0l0,0v0h0l-.06,0a.33.33,0,0,0,.11.08v.06s0,0-.06,0a.17.17,0,0,0-.09-.08l0,0h0a.12.12,0,0,1,.11.1c.09,0,.15,0,.17.08h0v0s0,0,0,0h0a.29.29,0,0,1,.06.12h0v0s-.05,0-.08,0l0,0h0l-.06,0s0,0,0,0l-.06,0,0,0s0,0,0-.06h0s0,.06,0,.1l.17,0h0s0,.06,0,.09h0s0-.06,0-.07h0a.08.08,0,0,1,0,.07l0,0s0,0,0,0l-.07.08c-.07,0-.08,0-.13-.06h0l0,0-.12,0,0,0a.18.18,0,0,1,.13.05h0s0,0-.08.07,0,0-.06,0a.08.08,0,0,0,0,0l0,0,.09,0s0,0,0,0h0l-.07.06-.19,0-.17.22c-.06,0-.19,0-.25.07s-.07.1-.12.18a.48.48,0,0,1-.33.18,1.06,1.06,0,0,1-.15.24l-.09.27c0,.23.18.47.24.63l0,.22c0,.08.08.16.1.24a1,1,0,0,1-.1.55h0v-.06a.54.54,0,0,0-.16,0s-.07-.17-.1-.22-.08-.06-.12-.16l-.05,0,0-.09h-.05l-.1-.19a.14.14,0,0,0,.08-.06v-.05s0,0-.08,0h0l.06-.31c0-.07-.07-.06-.12-.09s-.17-.29-.3-.25-.08.06-.12.09l-.16,0s0-.1-.08-.14a.32.32,0,0,1-.2-.09.68.68,0,0,1-.27,0v0l-.1,0-.07-.12h0l0,.09a.83.83,0,0,0-.3,0s-.06,0-.11.06-.09-.09-.17-.05l0,.05c0,.07.11,0,.17,0s.09,0,.11.09l-.08,0c0,.1.13.1.17.17h-.13a.24.24,0,0,0-.18-.12l0,0v0l0,0h0l0,0h0l0-.05-.12.05L11,23.74l0-.07-.14-.08h-.06l.06,0h0s-.11,0-.17,0a.74.74,0,0,0-.39,0c-.06,0-.08.05-.18,0l0-.06,0,0s.06.07,0,.12-.16.15-.29.18-.17,0-.21,0l.05.06c-.05.1-.18.08-.26.15h0l.07.06h0l-.08.1c0,.16.08.28.05.41L9.22,25l0,.21a1.64,1.64,0,0,0,.08.88c.07.12.17.23.25.34s.11.22.18.31a.49.49,0,0,1,.21,0c.06,0,.08.11.17.12a3.09,3.09,0,0,0,.62-.13v.06s.08,0,.1,0l.06,0s0,0-.06-.06h0c.05,0,.17-.07.2-.14s0-.07,0-.11l.06-.05v-.16l0-.13c.26-.09.74-.25,1-.08a.17.17,0,0,1,0,.09c0,.08-.12.11-.16.17s-.08.2-.08.21h.05l-.05.33h0l-.07-.13,0,0h0a.21.21,0,0,1,0,.12l.07,0v.06c-.05.15,0,.3-.07.45s-.13.07-.14.17l.07,0h0v-.06s.06.06.13.06.29,0,.48,0l.1,0,.07,0,.28,0,.11,0c0,.07,0,.06,0,.11l.16,0A.39.39,0,0,1,13,28l-.06.09c0,.1,0,.25,0,.35a.71.71,0,0,0,0,.31c0,.16.29.36.41.47l0,.12c.07.07.12,0,.18,0s.19,0,.3-.09l.09,0,.13-.09a.35.35,0,0,1,.14,0c.06,0,.13,0,.18,0a.66.66,0,0,1,.31.37.73.73,0,0,1-.11.11h0s0,0,0,0,0,.06,0,.09l.11,0c.07,0,.11-.22.25-.17a.14.14,0,0,1,.1.11l0,0a.29.29,0,0,0-.22.08.88.88,0,0,1,.08.23.54.54,0,0,0-.11.23c0,.06.07.16.13.21a.21.21,0,0,0,.14-.08c0-.09-.09-.33-.14-.36s0,0,0-.05h0c.08,0,.45-.13.46-.19l0,0h-.08l0-.07a.09.09,0,0,1,.1-.06.71.71,0,0,0,.08.18c.16,0,.29,0,.34.14s0,.08.06.11.31,0,.44,0,.21.2.45.14c.09,0,.12-.1.19-.13a1,1,0,0,1,.49,0h0v0l0,0h-.16v0c.08,0,.15.07.17.17h0a.09.09,0,0,1,0-.07s.11,0,.15,0l0,.05c.05,0,.12,0,.16.07h0c-.12.05-.08.15-.25.2h.18a.52.52,0,0,1,.22,0,.82.82,0,0,1,.43.29c0,.08,0,.16,0,.25h0l0-.06c.16,0,.3.16.35.27l0,0h0l.26.06s0,0,0-.05a.73.73,0,0,1,.44,0l.3.1c.07,0,.35.32.36.32s0,0,.07,0,0,.09.07.15.07.49.31.52a.15.15,0,0,1,0,.15c-.09,0-.12.16-.18.23s-.19.11-.25.21-.07.21-.14.26h0c.1,0,.21-.09.29-.11l.09.21a1.05,1.05,0,0,0,.36,0,.27.27,0,0,0,0,.13h0c0-.11.19-.13.25-.22s0-.15.11-.17l.2,0a.67.67,0,0,0,.14.09c.15.05.31,0,.36.2h0l.05,0c.06,0,.18.11.17.18s-.08,0,0,.22a.9.9,0,0,1,.36-.19c.1,0,.18.09.26.11l.27,0c.15,0,.25-.06.41,0s.43.36.66.51.27,0,.41.06a1.36,1.36,0,0,1,.2.68,1.15,1.15,0,0,1-.48.77l-.13.06s0,.09-.05.16a1.07,1.07,0,0,1-.27.4h0l0-.09h0a2.62,2.62,0,0,1-.09.42l0,.45a1,1,0,0,1-.07.33.77.77,0,0,0,0,.2.25.25,0,0,0-.17.3l0,.17c0,.05-.08.08-.11.12l-.09.19c0,.08-.14.15-.16.26l0,.14c-.14,0-.27.07-.26.23a1.55,1.55,0,0,1-.44,0,.92.92,0,0,0-.25,0c0,.11-.07.09-.15.14l-.08.1a.21.21,0,0,0-.12,0,2.87,2.87,0,0,0-.53.34c-.07.06-.08.14-.21.13v0c.1,0,0,.18,0,.23a.63.63,0,0,1,.05.16c.08.5-.2.52-.36.77l-.14.33a1.17,1.17,0,0,1-.27.32c0-.17.24-.26.22-.44h0a.2.2,0,0,1-.16,0h0l-.05.21c0,.07-.14.1-.18.18l-.06.3c-.06.16-.2.24-.29.36s-.15.26-.3.3-.15,0-.22,0-.15.05-.24.06-.2-.15-.39-.12-.08-.1-.14-.12l-.05.07v0c.09.13.25.15.34.26s0,.07,0,.11.09.18.16.22,0,.1,0,.13a.93.93,0,0,1-.17.24s0,.11-.07.15-.43.17-.63.21a1.27,1.27,0,0,1-.45,0s-.14,0-.16,0,0,.17.07.2a1.16,1.16,0,0,0-.1.21c0,.08.07.11,0,.18s-.06,0-.1.06a.49.49,0,0,1-.31,0c-.1,0-.21-.11-.32-.1l0,0c0,.09.05.14.06.21s0,.1,0,.17.12.13.2.07h0l0-.06.14,0h0c0,.06,0,.13,0,.19l0,0s-.08,0-.1,0,0,0,0-.06a.28.28,0,0,0-.22.05v0l.18,0h0a.51.51,0,0,0-.25.18c0,.19,0,.22-.09.33s0,.07,0,.1l-.25,0c-.15.06-.36.28-.25.49a.53.53,0,0,0,.26.21ZM15,21.61v0Zm0,0v0ZM44.39,36.37c0-.07-.1-.08-.08-.21l0-.13-.14-.26a.46.46,0,0,1,.08-.28l.07,0a1.11,1.11,0,0,0,.2-.51l-.09-.1,0-.09a.61.61,0,0,1-.11-.35c.05-.12.13-.15.13-.35h.12l.07-.05s.06,0,.1,0l0-.05c.08,0,.12,0,.19,0v-.07l.13-.08s0,0,.06,0l0,0a.18.18,0,0,1,0-.06l.09-.08h0s0,0,0,0l.06-.07s0-.05,0-.09h0a.12.12,0,0,0,.07,0v0a.3.3,0,0,1,0-.15h.05s0,0,.06.06.05-.06.09-.09a.32.32,0,0,0,.06-.27c.06,0,.05-.06.11,0s.09.07.13.12a.46.46,0,0,1,.06.2,23.47,23.47,0,0,1-1.6,3.09.55.55,0,0,0,0-.09Zm-8.32-22.9h0s-.07.09-.12.1l0-.08s-.11,0-.13,0,0-.15.07-.24h0a.15.15,0,0,0,.1.1.52.52,0,0,1,0-.15h.08a.2.2,0,0,1-.07.21h0l.06,0Zm-.57-.65c-.15,0-.27,0-.37,0s-.06.1-.1.15l-.08-.07a.24.24,0,0,1,.09-.12l.21,0c.07,0,.09-.12.14-.15l.15,0,0,0h0c0,.07,0,.09,0,.19s0,0-.06.09ZM26.25,3.54l-.09,0,0,0s-.07,0-.1,0,0-.07,0-.1.07,0,.11.08l.18.12s.06,0,.07.06h0l-.08-.06Zm.4,1a.22.22,0,0,1-.21,0c0-.05.07-.09.12-.12s.13,0,.2.05l-.05.05-.07,0Zm-.21-.45h0l.08,0c.07,0,.09,0,0,.09s-.16-.08-.11-.12Zm.21-.32s.08.11.15.1.06-.06.09,0,0,0,0,0a.85.85,0,0,1-.22.12l0,0-.09-.12s.09-.06.12-.1Zm-.39,1.31.12,0s.13,0,.13,0a1,1,0,0,1-.32.07s0-.06.07-.09Zm.64,0v0l-.15.05-.09,0-.13,0-.12,0h0s0,0,.06,0l.18-.1a2.6,2.6,0,0,0,.27,0Zm.29.32a.18.18,0,0,1-.09.05l0,0-.09,0a2.92,2.92,0,0,1-.42,0s-.13,0-.1-.08.18-.06.23-.08.23.05.37.06h0v0h0l-.14,0a.74.74,0,0,0,.23.06Zm-.36,1h0l-.08.07-.08,0,0,0-.09.05a.49.49,0,0,1-.14,0s0-.09,0-.1,0-.1,0-.12l.14-.07.16-.14h0s.18.09.17.14,0,.06-.09.09a.07.07,0,0,1-.06,0Zm8.21,22.37a.08.08,0,0,1,.07,0c-.05,0,0,.11-.11.12h0v-.05s.05-.07.08-.1ZM29,9.37c.06,0,.16,0,.2,0a.34.34,0,0,1,0,.3l-.17,0v.07a.16.16,0,0,1-.24.1,1.36,1.36,0,0,1-.33.21l-.28,0c-.1,0-.09.19-.33.15a.88.88,0,0,1-.28-.07l-.13-.09c-.14-.05-.47,0-.56-.06.09-.09.19-.1.27-.21a.27.27,0,0,1-.23-.13.76.76,0,0,1-.32,0l0,0v0c0-.09.38-.08.48-.15l0-.05V9.48a.93.93,0,0,0-.22-.07c-.16,0-.32.14-.41,0a.07.07,0,0,1,0-.06,1.35,1.35,0,0,1,.24,0l0,0-.07-.09c.07-.16.17.08.29,0h0a.23.23,0,0,0-.09-.12h0l0,0c.14,0,.34.07.37.22s-.07.12-.05.16l.09.13.09-.08c.05,0,.12,0,.16-.07s0-.16,0-.21l0,0h0a.41.41,0,0,0,.16.19l0,0h0l0-.09c.06,0,.14-.08.2,0a.2.2,0,0,0,.17.11.24.24,0,0,0,0-.13c.16,0,.32.06.44,0V9a.33.33,0,0,1,.16,0c.05.12.16.1.28.16l0,0a.18.18,0,0,0,0,.12l.07,0Zm2.35,4,0,0h0a.34.34,0,0,1,0-.11h0v.09Zm.52,1.72c0,.18-.09.13-.19.08a.08.08,0,0,1-.09,0,.41.41,0,0,0-.19.14l0,0-.09,0h0c.11,0,.3-.17.32-.29s.05,0,.09-.06.19,0,.31,0,.05-.1.08-.16a.48.48,0,0,1-.18.07h0l-.17-.08h-.23l-.07-.06,0,0c0-.05.2-.06.27-.16s0-.11,0-.14h-.12c.07-.13.25-.15.44-.16h0c-.06-.12,0-.18,0-.32h0l-.1,0a.42.42,0,0,1-.08-.1c0-.08.07-.11.11-.16-.16,0-.12,0-.24,0l-.1,0a.07.07,0,0,1,0,.06l-.14,0c0-.09.14-.2.11-.25a.1.1,0,0,1,0-.11.13.13,0,0,0,.07-.05l0-.08h0a1.43,1.43,0,0,1-.21.14h0c0-.09.05-.2.08-.28l-.07,0h0a.27.27,0,0,1-.07.07l-.06,0,.1-.18,0-.11s.05,0,.07,0l-.07-.09s0-.05.06-.06l.11,0-.07-.14.11,0-.05-.08.05-.07.1.06c.11,0,.25-.09.37,0s0,0,0,.06-.28.1-.29.28l0,0c.15,0,.47,0,.56,0s0,0,0,0-.12.38-.3.38h0l.09.05h0c0,.06-.17.07-.28.07h0c.15.06.16,0,.28,0s.26.15.29.2,0,.19.09.27.09,0,.14,0l.13.17a.48.48,0,0,1,0,.18c.12.13.19.11.07.29l.09,0c.09-.12.26,0,.33,0l0,.15a.79.79,0,0,1-.36.27h0l.27,0h0a.74.74,0,0,1,0,.08S33,15,33,15s-.12,0-.18.06l-.17,0-.12,0s0,0-.09,0l-.23,0v0a1.42,1.42,0,0,0-.4,0Zm-.67-.76c0,.07-.08.11-.09.21H31l0,0-.2,0-.21.15h-.09a.9.9,0,0,1-.25.06.32.32,0,0,0,0-.13h-.1a.22.22,0,0,1,0-.08l.06,0H30v0s.14,0,.17,0,0-.07,0-.09.13,0,.14-.07l-.13,0h0l0-.05s0,0,0,0,.08-.05.15-.09l0,0a.71.71,0,0,1-.31,0l0,0,0,0,.08,0c0-.06,0-.05,0-.09h0s-.06,0-.11,0v0a.2.2,0,0,1,.08-.12,1.38,1.38,0,0,0,.34,0,.1.1,0,0,1,0-.06.16.16,0,0,0,.12-.1h-.17l0,0,.07,0c0-.12.07-.17.21-.18a.08.08,0,0,0,.09.07.43.43,0,0,1,.36,0,1.69,1.69,0,0,1,.09.29c-.05.09-.09.11-.21.14a.63.63,0,0,1,.11.4Zm4.18,4.12a.46.46,0,0,0,0,.09l0,.13a.36.36,0,0,1-.05.18s-.08,0-.13,0l-.05.07c-.2,0-.05-.22-.09-.39s-.07-.11-.09-.18h0a.47.47,0,0,0,.28-.1c.05,0,.17.15.14.24Zm-.14-.73v-.08h0l0,0c0,.17,0,.4-.07.5h0v0h-.05l0,0,0,0-.06,0h0l0,0h0s0,0-.05,0l0,0s0,0,0-.06l0,0a0,0,0,0,1,0,0,1.06,1.06,0,0,1,.19-.1Zm1.59,1.78s-.05.06-.09.09a3,3,0,0,1-.49-.23c-.08,0-.13,0-.17-.09s.15-.06.23-.14a.43.43,0,0,0,.41,0,.34.34,0,0,1,.16,0h0c0,.06-.12.18-.09.26s.05.05,0,.09Zm2.9.51a.25.25,0,0,1,0,.09l-.39,0v0c-.09,0-.24,0-.32-.06L39,20h0s0,0,0,0h0s0,0,.07,0l0,0v0l0,0s0,0,0,0l.19,0a.29.29,0,0,0,.19,0h0v0h0l.13-.06Zm1.9,0,.27-.1c0,.06-.12.09-.17.15l0,.05c-.11,0-.13.09-.26.09s0,0,0,0a.64.64,0,0,0-.14,0,.38.38,0,0,1,0-.1l.17,0a.06.06,0,0,0,0-.06l.16,0Zm2.14,10.24c-.06,0-.1.06-.17,0,0,.14-.09.14-.17.18,0,.2-.13.21-.17.33s0,.09,0,.15-.06,0-.08,0a.76.76,0,0,0-.09.41c0,.08.13.13.18.19a.69.69,0,0,1-.08.2s0,0,.06.05a.67.67,0,0,0,.06.5c.08.1.18.11.24.24l-.08.15a1.1,1.1,0,0,1,.05.36s0,.07,0,.1,0,.24.06.39l.06,0v0a.75.75,0,0,1-.09.13.2.2,0,0,1,0,.06,1.87,1.87,0,0,1-.3.36c-.17.12-.4.15-.58.26s-.23.26-.36.37l-.32.24v.18a.16.16,0,0,1,.1.13.57.57,0,0,0,0,.34l.07,0a1.42,1.42,0,0,1,0,.35l0,.09v0s.05,0,.06.06c-.1.24-.35.23-.58.35a.79.79,0,0,0-.22.21l0,0a.16.16,0,0,0,.09.07.77.77,0,0,1-.08.45s-.07,0-.08.06,0,.08,0,.13-.21.17-.28.27a4.1,4.1,0,0,1-.92,1l-.22.2c-.07,0-.32,0-.36.06s0,.05,0,.07l-.16,0a.28.28,0,0,1-.09.09c-.08,0-.18-.12-.29-.09l-.09.05c-.11,0-.16-.06-.3,0l-.09.08c-.1,0-.22,0-.32,0s-.11.09-.16.13-.13,0-.15-.08a.49.49,0,0,0,0-.09h-.09l0-.06h0l0,0h0l0,0,0-.13c0-.05-.17-.23-.14-.26s.06,0,.09,0a.76.76,0,0,0-.18-.59c-.1-.18-.14-.4-.25-.57l-.32-.36-.09-.28s0,0,0-.09-.07-.12-.08-.19,0-.11,0-.18l-.06-.15-.08-.38c.15-.15-.12-.38-.18-.52l-.29-.59c-.06-.1-.16-.17-.19-.29a2.52,2.52,0,0,1,0-.59c.16-.12.12-.44.2-.64l.08-.09,0-.11.08,0a.52.52,0,0,0,.13-.3l0-.27c0-.12-.3-.34-.08-.44,0-.18-.07-.23-.13-.35l0-.17L36,31.4c-.05-.09,0-.17,0-.24a1.5,1.5,0,0,0-.12-.22l-.3-.28a.65.65,0,0,0-.18-.19l0,0s0,0-.1,0l-.12-.17h0l.06,0s-.07,0-.1-.06a.59.59,0,0,1-.07-.13c.11,0,.14-.14.17-.26h.1l-.13-.11c.06,0,.07-.07.07-.15h-.07v0a.48.48,0,0,0,.14-.24l0-.09,0-.11a1.77,1.77,0,0,0-.09-.22l.05,0h0l0,0c-.21,0-.14,0-.2-.15a.21.21,0,0,0-.16,0,.1.1,0,0,1,0,.06.58.58,0,0,1-.31,0,.31.31,0,0,1-.48-.18l0-.09,0,0h-.06l0-.07a.88.88,0,0,0-.3-.18s0,0-.07.05l-.58.05c-.07,0-.07.08-.12.12l-.24,0-.56.25a1.51,1.51,0,0,0-.26-.15l0,0c-.06,0-.15,0-.19,0a1,1,0,0,0-.37,0l-.29.08-.28.14c-.07,0-.29-.13-.35-.16a3.51,3.51,0,0,1-.43-.33L29.83,28c-.1-.07-.16-.16-.29-.2s0-.05,0-.09a.32.32,0,0,1-.24-.18h0l.06-.05v0a.08.08,0,0,1-.06,0v-.08c0-.07-.1-.09-.13-.14l0-.09a.58.58,0,0,1-.24-.15.11.11,0,0,0,0-.09.15.15,0,0,1-.11,0s0,0,0,0-.07,0-.09,0,0-.11.07-.15-.13,0-.19,0l-.11-.07v0c-.09-.06-.05,0-.13-.09s0-.17,0-.24h.05a.17.17,0,0,0,0-.07c-.08,0-.08-.21-.24-.28h0a.51.51,0,0,0,.25-.33l0-.18c.06-.21.19-.55,0-.71.09-.12.08-.42-.1-.43l0,0a.58.58,0,0,1,.06-.35l.13-.14.17-.4c.06-.08.18-.12.22-.21s0-.08,0-.12A.8.8,0,0,1,29,22.7c0-.07.16-.08.22-.15s.09-.3.18-.34.2,0,.28-.07a1.64,1.64,0,0,0,.52-.44c.15-.21-.06-.31,0-.49s.11-.12.14-.19,0-.12,0-.17a1,1,0,0,1,.22-.22c.14-.1.33-.11.44-.25s.16-.43.22-.48l.09,0c.08.08.13.18.25.22A1.29,1.29,0,0,0,32,20c0,.08.17.12.29.08s.1-.1.17-.15l.22-.08a.11.11,0,0,0,.08,0,1,1,0,0,1,.24-.2,2.49,2.49,0,0,1,.39,0l.13-.06s.08,0,.14,0l.1-.06c.18,0,.3.09.45.06a.65.65,0,0,0,.24-.13c.06,0,.09.06.16.08s.06-.06.12-.07.1.08.13.09.3-.12.39-.15h.08l.13.06a.26.26,0,0,0,0,.11h0l.17-.1c0,.19-.31.26,0,.44l0,.12c0,.07-.24.27-.29.33a.32.32,0,0,0,.19.19s.05,0,.11,0l0,.09.35.15.26,0,.18,0,.08.07s.08,0,.14,0,.11.26.22.32.37.06.49.1.22.2.36.21.1,0,.13-.06c.28-.15,0-.27.13-.48a.68.68,0,0,1,.71-.19c.09,0,.06.12.12.16a2,2,0,0,0,.29.06h.13c.06,0,0,.11.1.13h.29l.4.09,0,0,.17,0s.12.07.19.06l.11-.09a.77.77,0,0,1,.54-.1c0,.06,0,.07.09.11s.15,0,.25,0c.16.08.19,0,.3,0l.2.52c-.12.1-.09.32-.17.46a.07.07,0,0,1-.07,0,1.33,1.33,0,0,1-.36-.58c-.05,0-.06,0-.09.08,0,.21.18.32.27.47l.15.39c.12.19.21.41.33.6l.14.14-.06.06a.83.83,0,0,0,.07.22s.1.06.14.09a.86.86,0,0,1,.23.39c0,.19,0,.52.08.65s.28.13.33.23.13.64.3.78h0s0-.07,0-.1.09.11.12.16a.26.26,0,0,1,.12,0l.24.26s.08,0,.1,0,.06.16.08.17.29.12.3.28a1,1,0,0,1-.24.13h.19a1.25,1.25,0,0,0,.25.3h.16l.25-.11c.1,0,.13.07.22,0l.2-.13h0l.16,0c.05,0,.1-.08.18-.06a.4.4,0,0,0,.17,0,.9.9,0,0,0,.35-.19l.14.06v0l0,.11c0,.06,0,.11,0,.16s-.06.08-.07.12,0,.16,0,.24l-.15.26-.12.11a.61.61,0,0,1,0,.07l-.2.32,0,.13a3,3,0,0,1-.48.62l-.23.28c-.21.17-.46.29-.67.46l-.56.64a.07.07,0,0,1,0,.09ZM22.55,12.31h0a0,0,0,0,1,0,0,.3.3,0,0,1-.14.05h0s.09,0,.1-.08ZM20.81,33.19a.6.6,0,0,1-.46.1.47.47,0,0,1,0-.39,1.63,1.63,0,0,1,.54.05,1.72,1.72,0,0,1-.09.24ZM20.17,16.8l.21-.06h0v.05l-.13,0c.09.19-.22.32-.22.54.1,0,.09-.12.19-.14l.12,0-.1.1h0a.39.39,0,0,0,.31.12l0-.06a.45.45,0,0,1,.3.08l0,0-.13.11,0,0a.24.24,0,0,0,.09.09.28.28,0,0,0,.13,0l0,0v0c-.09.08-.09.05-.2.1h0a.53.53,0,0,0,.07.15h0A.13.13,0,0,1,21,18L21,18h0c0,.08,0,.11.1.1s-.06.19-.09.27l-.14,0v-.1l-.07.06h0a.39.39,0,0,1,0,0,.19.19,0,0,0,.06-.13L20.77,18h0c-.06.11-.22.19-.31.28a.25.25,0,0,1-.12,0s0,0,0,0,.17-.14.28-.19h0l-.16,0s0,.05,0,.06h0V18h-.09c0,.07-.12.09-.22.07l-.33,0-.27,0s0-.08,0-.1.21-.13.29-.21l-.13,0v0c.05-.15.13-.07.21-.15l-.09-.1a1.57,1.57,0,0,1,.46-.66Zm.45-8.6h0c-.09-.08,0-.1.06-.15s0,.13,0,.16Zm-.51-.92a.05.05,0,0,1,0-.08h0c.06,0,.15.06,0,.08ZM20,7.37h0s.07.1,0,.14-.13,0-.09-.08a.13.13,0,0,1,0-.06Zm-.09.89v0h-.07l-.12,0h-.08s0,0,0,0a.33.33,0,0,1,.13,0s-.07,0-.1-.08,0,0,0,0h.06s-.07,0-.08-.06a.33.33,0,0,1,.13-.1.39.39,0,0,1,.35.08.31.31,0,0,0,.13.09c.06,0,.22.06.17.14a.42.42,0,0,1-.21.14c-.05,0-.09,0-.14,0L20,8.4c-.05,0-.17-.05-.16-.09s.05,0,.08,0a.14.14,0,0,0,.09,0H19.9Zm-.57-2a.14.14,0,0,1,0,.14s-.11,0-.12,0a.18.18,0,0,1,.07-.09h0Zm-4.5,3.81.17,0a.4.4,0,0,1,.21.11c0,.08,0,.16,0,.24a.42.42,0,0,1-.5.12c-.15-.11,0-.37.12-.43Zm-.95,2h0a.36.36,0,0,0-.13.1c-.12,0-.3,0-.4-.08s-.08-.21-.32-.21L13,12l0,.12,0,0c-.24,0-.26.22-.52.22a.51.51,0,0,0,0-.22l-.4.07v0c0-.13.16-.17.27-.22-.11-.25.06-.53.13-.74l.14.11,0,.1a.26.26,0,0,0,.16.07l.05-.09a2,2,0,0,1,.34.22c.21.12.35,0,.32.37a1.26,1.26,0,0,1,.32,0l.13.08ZM11.55,6.58c.09,0,.1,0,.11-.09h.17s.07-.05.11,0,.18.15.37.16l.1-.12a2.43,2.43,0,0,1,1.09-.14l.24.16c.16.06.26,0,.34.16v0c-.06,0-.29.11-.28.2l.05.14a3.1,3.1,0,0,1-.54,0L13.16,7s0-.14-.05-.17l-.1,0,0,0V7a1.1,1.1,0,0,1-.42,0,2.37,2.37,0,0,0-.28-.1l0,.1a1.51,1.51,0,0,1-.49,0,.27.27,0,0,1-.06-.21c-.07,0-.16,0-.2.07l0,.08c-.22.14-.37-.08-.47-.16h0l-.08.11-.14,0c0-.11-.1-.21-.12-.34.18-.18,0-.32-.12-.43S10.44,6,10.5,6s.13,0,.2-.05H11a3.13,3.13,0,0,1,.34.14h0c-.07.06-.25,0-.3.11l0,.1a1.66,1.66,0,0,1,.42.05.82.82,0,0,0,.14.23ZM9.27,6.16a.49.49,0,0,1,0,.2c0,.07-.09.08-.12.13s0,.18,0,.25l0,0-.21,0c-.14,0-.38.09-.4-.1s.07-.09.14-.11v0l0,0L9.19,6a.32.32,0,0,1,.08.18ZM9.78,6,9.5,5.77c0-.1.15,0,.25-.07s.16.06.25.07h.19l.11.09c0,.06,0,.13,0,.19L9.88,6h-.1Zm.56,2.06c-.06.16-.21.2-.38.13,0-.15-.09-.19-.13-.3a.62.62,0,0,1,.05-.45H10c0-.06-.07-.09-.09-.17s.22,0,.3,0,.28.08.46.09.32-.11.46.05v0c-.17.14-.24.38-.41.52a2.19,2.19,0,0,0-.59,0l0,.05.11.1ZM9.06,9.63c.06,0,.06-.18.1-.24l.09,0a2.32,2.32,0,0,1,.42.27c.07.15.09.11.17.22h0L9.65,10c-.19.05-.47-.11-.61-.15a1.19,1.19,0,0,1-.22-.05l0,0c0-.09.14-.09.22-.14ZM8.58,8.28c-.08-.06-.19,0-.3-.08A1.21,1.21,0,0,1,8,7.91l.1-.14c.14.06.2.19.38.2s.13-.18.22-.21V7.71l-.25-.22,0-.05,0,0,.2,0s.07-.06.13,0l.11.08c.06,0,.29-.07.33-.1a.39.39,0,0,1,.28.09h0c0,.05-.06,0-.1.06l0,.09c-.06.05-.16.07-.22.12a.18.18,0,0,0,0,.1c.08,0,.09,0,.16,0A.9.9,0,0,1,9.6,8l0,.1-.08.08c-.07.12,0,.4-.25.36s-.12-.11-.22-.13v0l.12.12-.1.09c-.28,0-.33-.26-.5-.37ZM8.1,9.56c0,.06.08.06.09.15s-.11.08-.2.1a1.41,1.41,0,0,1-.9-.14C7,9.64,7,9.58,7,9.55a.16.16,0,0,0-.12,0c0,.13-.16.17-.32.2H6.37l-.13.09a1.77,1.77,0,0,1-.66.09H5.4A23.4,23.4,0,0,1,7.16,7.89l.06.05c0,.07,0,.16.06.25a1,1,0,0,0,.21.32c0,.12-.07.18,0,.3s.16.16.26.2c.27.12.69.09.72.45h0a.67.67,0,0,1-.34-.11.83.83,0,0,1-.28.09l0,0,0,.14c.1,0,.25-.08.3-.06Zm-6,7.88c.13.1.31.08.32.31l0,.05A.67.67,0,0,1,2,17.68v0l.05-.08c-.08,0-.13,0-.17,0a.21.21,0,0,1-.09,0s0-.05,0-.08a.27.27,0,0,0-.17-.06v0l0-.05h0l.06-.22.17,0c.11.06.13.22.23.3ZM14.21,45.1h0c-.07,0-.11,0-.14-.08s0-.29.08-.4h.11a.09.09,0,0,1,0,.08l-.1.09.06.11,0,.2ZM11.62,4.9a.14.14,0,0,1-.09.08l-.24-.17a.45.45,0,0,1-.06.2,2.29,2.29,0,0,1-.58-.1h-.07C11,4.59,11.52,4.27,12,4v.24l.09.12c.22,0,.32,0,.45.1l-.13-.05c-.2.15-.44.08-.52.38-.12,0-.16-.1-.24-.1l-.06.08s.07.11,0,.17Zm5.25,4.36.14,0s.05-.06.09-.08a.36.36,0,0,1,.25.24,1,1,0,0,0-.3,0s0,0,0,0,.23.07.31.1.07.06.1.1h0a1,1,0,0,1-.24,0c-.06,0-.14-.09-.22-.06l0,0h0l.14.12,0,0-.18,0c.08.15.32.15.45.24s0,.14.08.18.16,0,.3,0,.11-.07.2,0a.6.6,0,0,1,.24.25h0l-.17,0v.09c.16,0,.29,0,.42,0l0,.12c.12,0,.19,0,.27,0l.23.17v0s-.06.1-.08.11-.16-.08-.29,0h0a.24.24,0,0,1,.15.17.23.23,0,0,0-.2.14c-.06,0-.11-.08-.14-.13h0l0,.21,0,.17h0a.38.38,0,0,1-.22-.09s0-.08,0-.12l-.12.05s-.08-.07-.08-.15l0-.1s-.12,0-.19,0-.19-.22-.4-.25c0,0-.12,0-.12.11l.15.17,0,0h-.11A.38.38,0,0,0,17,11a1.8,1.8,0,0,0,.13.28l.14,0c.06.12.13.24.19.35l0,0,.05,0c.07,0,.11.1.17.14l.17.08h0l-.07,0,0,0c.1.17.3.13.26.43l0,0a.61.61,0,0,0-.2-.24c0,.16.13.22.14.39h0l-.11,0,.1.21a.52.52,0,0,1-.25-.22c-.3,0-.38-.19-.55-.32,0,0,0,.09,0,.13s-.14-.12-.31-.12c0,.2.29.27.43.36a.82.82,0,0,1,.35.44l-.55-.2c-.12,0-.21,0-.3-.06l-.11-.13-.13,0-.08,0a.34.34,0,0,0-.09,0c-.09-.07-.21-.06-.26-.17s.08-.06.11-.11l-.16-.09-.14,0a.33.33,0,0,1-.2-.3c-.17,0-.22-.06-.36-.09v0s0,.11,0,.13h0l-.25-.07-.12.12a1.4,1.4,0,0,1-.56-.1c0-.16,0-.22.19-.24a.9.9,0,0,1,0-.14,1.23,1.23,0,0,1,.41.08l.1.12h0a.48.48,0,0,1,0-.15,1.65,1.65,0,0,0,.33-.08h.17v0a1.72,1.72,0,0,1-.23-.28c0-.05.27-.14.33-.2l.06-.13.14-.16a1,1,0,0,0-.23-.46.89.89,0,0,1-.32-.16l-.1-.18-.11.08H15.1l-.25.06h0l0-.15.28,0V9.66l-.35-.25h-.12l-.08,0c0-.19-.14-.17-.26-.26L14.18,9l-.1,0c-.07,0-.23-.13-.28-.1l0,0h0c.07.13.42.12.49.28a.1.1,0,0,1,0,.07.31.31,0,0,1-.11.05c-.19,0-.38-.2-.51-.12h0c0,.09.09.11.07.19s-.17-.15-.26-.12l-.12.05a.3.3,0,0,0-.18-.07l-.1,0-.36-.07h-.33l-.1,0a.3.3,0,0,0,0-.15L12.1,9l0,.08c-.22,0-.58-.06-.54-.28.11,0,.47,0,.52,0-.18-.23-.44-.17-.75-.25,0-.17,0-.22.17-.26s0,0,0-.06l-.12-.08c0-.45.72-.92,1.21-.72l0,0a1.37,1.37,0,0,0-.4.43l0,.1.15.12c-.17.25.14.36.25.49v0l-.14.06v.07l.29,0c0-.07.1-.13.06-.23s-.11-.06-.17-.11l-.1-.13a.28.28,0,0,1,.13-.13.5.5,0,0,0,.21,0v0l-.12-.09h-.09L12.48,8a.32.32,0,0,1,0-.18l.09-.06a1.16,1.16,0,0,0,.31,0h0l-.23-.13,0,0c.15-.07.64-.3.86-.15l.15.19.13.15c0,.06-.14.25-.16.31v.18c.14,0,.26,0,.28-.15a.29.29,0,0,1,.23,0c0,.05,0,.11,0,.16l.1,0,0,0,0-.2c.12-.33.41-.16.66-.12.08,0,.16,0,.22,0s.06.1.11.14a.73.73,0,0,1,.16.12v0a.46.46,0,0,0-.24.19l.05.06h.06a.3.3,0,0,1,.24-.12,2.11,2.11,0,0,1,.16.25h0c0-.09.13-.15.18-.22a1.39,1.39,0,0,1,.34.14h0l-.17.2c.13,0,.19-.06.32-.07v.14L16.5,9c.18,0,.33-.16.48,0,0,.12-.22.09-.29.18l0,0,.05.05a.94.94,0,0,0,.16-.06ZM20.27,2s0-.05.06-.07,0,0,0,0,.1.06.12.1h0s-.17,0-.17-.05Zm.85-.06s-.05,0-.08,0-.18-.08-.21-.18l.12,0a.13.13,0,0,1,.09,0s.1,0,.1.1v.12ZM24,1.16s.07,0,.11,0,0,0,0-.05.06,0,.09,0l.15,0a.63.63,0,0,1,.17,0l0,.2s0,.06,0,.08.09,0,.12,0a.33.33,0,0,1-.1.19s0,0-.07,0l0,0a.29.29,0,0,1-.07.09s-.14,0-.17.06a.05.05,0,0,0,0,0l.09,0,.12,0s.06-.06.08-.08h0l.07,0,.08,0c.06.05-.09.15-.14.18s-.15,0-.16.08,0,0,.06.07,0,0,0,0,0,0,.06.06a.07.07,0,0,0,.06,0s0,0,0,0l-.06,0s0,0,0,0,0-.06.08-.09.13-.08.18,0a.07.07,0,0,1,0,0,.12.12,0,0,1,0,.11s-.07,0-.07.07.09.11.13.16.06.12.1.18l0,0a.7.7,0,0,0-.14.13s0,0,.06.05h.05s0,.05,0,.08l.05.09,0,0,0,.06c0,.07.07.09.14.1s0-.12.06-.14,0,0,.06,0a.12.12,0,0,1,0,0h.08s0,0,0,.06a.12.12,0,0,1,.16.06h0a.43.43,0,0,0-.27.06.12.12,0,0,0,.13.09l.13,0h.12s0-.09.09-.09l.06,0h0s0,0,0,.05l0,0s.08.06.08.1-.15.07-.22.07h-.07a.27.27,0,0,1-.14.07h0l.05,0h0s0,.06,0,.09,0,0,0,0-.11,0-.16,0h0s0,.09.09.1.09,0,.12,0,0,0,0,0,.09,0,.12.06h0s0,0,.07-.06.08,0,.11,0l.07,0a.15.15,0,0,1,.1,0s0,0,0,.05-.09,0-.13.07-.05.06-.12.08h0l.12,0a.22.22,0,0,1,.09,0h.07c.07,0,.14,0,.18,0s0,0,0,.06.13.05.17.11a.07.07,0,0,1-.06.11l-.07,0c-.05,0-.09,0-.12,0a.4.4,0,0,1-.15,0,.69.69,0,0,0-.2,0h0S26,4,26,4a.09.09,0,0,1-.07,0,.62.62,0,0,0,.2,0h.16l-.08.08,0,0h0s-.15,0-.18,0,.15,0,.24,0,0-.09.13-.11.05.06.08.1,0,.07,0,.09l.06,0,.2-.09c.06,0,.15,0,.16.05s0,.1-.11.14l0,0s-.07,0-.12,0-.13.07-.2.07a.68.68,0,0,1-.13,0h0s.12.07.1.11,0,0,0,0h.07s0,.07,0,.11h.15s0,0,0,0,.19,0,.24,0h.1s.16.15.11.18a.42.42,0,0,1-.14,0h0a.44.44,0,0,1-.1.18h-.09a1.19,1.19,0,0,1-.2,0,.45.45,0,0,1-.12-.06h0s.17,0,.21,0,.05,0,0-.06l0,0h-.11c-.09,0-.24,0-.22.1l0,0H26a.23.23,0,0,0,.12,0h0a.42.42,0,0,0-.12.08v0a.16.16,0,0,1-.09.11s-.13,0-.19,0h0s.08,0,.08,0-.2.07-.09.14l0,0c0-.07,0-.09.1-.13l.06,0s.05,0,.08,0l.22,0h0c-.06,0-.08.11-.13.14s-.1,0-.12,0h0a.11.11,0,0,1,.14.06h0a.29.29,0,0,1,0-.08l0,0a.09.09,0,0,1,.07,0s.07,0,.1,0,.09,0,.11,0,0,.09-.07.11l-.05,0s.07.08.09.09h0l0-.07a.76.76,0,0,0,0-.09,1,1,0,0,1,.23,0c.06.08.08.05.21,0h.16s0,0,0,0,.08,0,.08,0h0s0-.06.09-.07a.22.22,0,0,0,0,.12.16.16,0,0,1,0,.08h0a1,1,0,0,1,0-.14h0c.14,0,.12.08.15.18h0a.13.13,0,0,1,0,0c.1,0,.06,0,.06.07h0s0,0,0,0V6s.13,0,.1.1l0,0a.12.12,0,0,1-.08,0A.54.54,0,0,1,27.6,6h0c0,.07.11.11.09.15s0,0,0,0a.32.32,0,0,1-.25,0,.4.4,0,0,1-.18-.06l0-.06h0l0-.05L27,6A.56.56,0,0,0,26.91,6s0,0-.06,0a1.2,1.2,0,0,0-.24,0,1.17,1.17,0,0,0-.24.08A3.25,3.25,0,0,0,26,5.94h-.22a.18.18,0,0,0,.14.07L26,6s.19,0,.18.06-.08.05-.1.09h0s.07,0,.11,0,.06,0,.1,0,.09,0,.18-.06.08-.06.18,0l.06,0s0,0,0,.06a.62.62,0,0,1-.14.18l-.12,0,0,0-.28.07s.09,0,.11,0-.18.21-.14.28h0a.28.28,0,0,1,.13-.09s0,0,0,0a.8.8,0,0,0,.26-.11l.11,0s0,0,.05,0,.05,0,0,0-.12.05-.15.07,0,.1-.09.13h-.07a.15.15,0,0,0-.11,0s0,0,0,0,.1,0,.14,0h0a1.31,1.31,0,0,0,.16,0s.05-.07.09-.1a.58.58,0,0,0,.09-.1,1,1,0,0,1,.18-.17h0l0,0a.79.79,0,0,0,.24,0h.15a.74.74,0,0,0,.2,0l.14-.08s0,0,.05-.05l0,.11h0s-.1.07-.1.11,0,0,0,0H27.8s-.27.11-.19.18l.09.05h0a.17.17,0,0,0-.12,0s0,0,.06.05-.1,0-.13.07a.06.06,0,0,1,.06,0s-.09,0-.09.07a.1.1,0,0,1,0,.09l0,0v0a.14.14,0,0,0-.09,0l0,0s0,0-.06,0v0h0s-.1.11-.14.13,0,0,0,0l-.09,0-.12.08-.13,0c-.05,0,0,.08-.06.1a.14.14,0,0,1-.13,0h0s.05.08.05.12a.13.13,0,0,1-.11,0c-.05-.06,0,0-.12,0s.1,0,.1.08a.33.33,0,0,1-.17,0s-.07,0-.12,0h-.12a.27.27,0,0,1-.22-.08h0l0,0S26,7.9,26,8s0,0,0,0h.09c.06,0,0,.11-.06.14v0s-.1.05-.12.08,0,.07,0,.11-.05,0-.06.07a.13.13,0,0,0,0,.11l0,0s-.05.06-.07.09h0a.1.1,0,0,1,0,.08l0,.08c0,.05,0,.11-.07.17a.1.1,0,0,1-.09.06l-.06,0s-.21,0-.22,0,.11,0,.11.08,0,0,0,.06v.09c0,.05-.14,0-.18,0h0a.25.25,0,0,1-.11.12h0s0,0-.06-.06h0a.13.13,0,0,1-.12.1s0,.07,0,.1h0s-.08,0-.1,0,0-.06,0-.09l0,0s0-.07.06-.09,0-.1.06-.14a.36.36,0,0,1-.2,0s0,.07,0,.09h0a.5.5,0,0,1-.1.1s-.06,0-.06,0,.24.06.12.15h0s0,.06-.05.08a.2.2,0,0,1-.15,0l0,0h0l-.07,0h0l0,.1h0s-.06,0-.08,0h0c0,.08,0,.09-.15.1h0s.12,0,.16,0,0,.14,0,.17l-.09,0c-.13,0-.1-.07-.29,0l0,0c0,.1.1.05.18.09l0,0,0,0s0,0,0,0,0,0,0,.06.07,0,.07.05-.07,0-.13,0L24,10.4l-.1,0,.14,0h.08l0,0,.06,0s.08,0,.06.08-.06,0-.09,0H24l.05,0h.05a.3.3,0,0,0,.17,0s0,0,0,.07l-.08,0s0,0,0,0-.06,0-.09,0h0l.08,0s0,0,0,0l-.11,0h0s.07.06.1.08,0,0,0,0h0a.42.42,0,0,1-.18,0h0s0,.08.06.11v0l0,0-.12,0-.13.08s0,.06,0,.08.09,0,.13,0h0c-.06,0-.17,0-.25,0a.59.59,0,0,0,.26.09c0,.06.07.09.09.14a.2.2,0,0,1-.15.12h0a.36.36,0,0,0,.11,0l0,0s0,.06-.05.08,0,.1,0,.11h0s-.14,0-.17,0,0,0,0,0,.14,0,.18,0h0c-.09,0,0,.05,0,.11l-.09,0h0l.08,0-.17,0a.14.14,0,0,0,.12.06s.06,0,.1,0h.05c0,.06-.23.14-.36.16a.1.1,0,0,0,.13,0l.08,0c0,.05.09,0,.06.11a.06.06,0,0,1,0,0s-.07,0-.1,0h-.11a.56.56,0,0,0-.2,0c-.06,0,0,.1-.1.13h0s0,0-.08,0-.11,0-.16,0,.12-.13.07-.16h0l.05-.11-.06,0s0,.09-.1.09,0-.08,0-.12-.05,0-.09,0,0,.1-.08.11h0l0,0h-.08l.09-.07s0,0,0-.05.08,0,.08-.06,0,0,0,0a.11.11,0,0,1,0-.05l-.06.05h-.07s0,0-.07.05.08-.1.11-.13l0,0s0,0-.05-.06-.12.05,0,.09,0,.06-.1.06,0,0-.08,0l-.08,0s-.06,0-.09,0h0s0,0,0,0l-.07,0h0s0,0,0,0a.45.45,0,0,1-.25,0c.05,0,.12,0,.12-.06s0,0,0-.08h0a.19.19,0,0,0-.09.05h0s0-.07,0-.11-.19,0-.25,0,.11,0,.12-.05h0c-.08,0-.07,0-.11,0h0l0,0a.15.15,0,0,1-.17,0l.09,0s0,0,0,0,.13-.07.1-.14-.11.07-.21.09,0-.06.09-.09l0,0h0l-.11,0s0,0,0,0a0,0,0,0,0,0,0l.08,0,0-.06h-.27c-.06,0-.09-.06-.07-.11l.11-.18s0,0,0-.07h0c-.07,0-.08.1-.18.13h0s0-.06,0-.08h0s-.07,0-.12,0,.06-.07.07-.12,0-.09-.1-.08-.1,0-.16,0h0l.19-.16-.12,0s-.09.07-.16.05,0-.08-.06-.11h0s.08,0,.09,0h0s0,0-.05-.08a.27.27,0,0,0,.12,0l.24-.07.09,0s-.06,0-.07-.06l0,0-.24.1c-.07,0-.15,0-.17,0l.09,0a1.25,1.25,0,0,0,.17-.09s.06,0,.07,0,0,0-.06-.05h0a.21.21,0,0,1,.15-.06s0,.06.06.08a.41.41,0,0,0,.23.07h0a.22.22,0,0,0-.07-.06l-.08,0a.3.3,0,0,1-.08-.14.36.36,0,0,1-.12,0,.09.09,0,0,1-.05-.08s0,0,0,0l-.06,0h0a.39.39,0,0,0,0,.1s0,.08,0,.13l0,0h0a.15.15,0,0,0-.07-.07h0a.1.1,0,0,0,0,.06s0,0,0,0a.37.37,0,0,1-.11.12s0,.05-.08.05h0s0-.09,0-.11,0-.2.13-.23c0,0,0-.06-.05-.06s-.11,0-.14,0h0l0-.06,0,0a.18.18,0,0,1-.08,0s-.06,0-.07,0,.15-.08.2-.13h0a.81.81,0,0,1-.17.07h0s0-.15-.05-.14a.13.13,0,0,1-.16,0h0a.19.19,0,0,0,.13-.1c-.08,0-.12.05-.18,0s0,0,0,0,.08,0,.11-.06a1.64,1.64,0,0,1,.34-.2v0a.15.15,0,0,0,.1-.05s0,0,0,0,.12,0,.14-.09a1.39,1.39,0,0,0,.28,0s0,0,.06-.06l-.06,0-.07,0-.11,0-.1,0a.71.71,0,0,0-.15.07l-.11.1-.07,0-.2.14L20,9.94s-.07,0-.07,0,0,0,0,0l-.05,0s0-.08,0-.1.06,0,.1,0l.14,0a.77.77,0,0,1-.19,0h0c.08,0,.24,0,.3-.07s0-.08-.05-.07l0,0-.19,0,0-.06s-.08,0-.11,0l.12,0a1.33,1.33,0,0,1,.54,0l.13,0s-.07-.08-.13-.09h-.07l-.07,0h-.08a1.67,1.67,0,0,1-.45,0l.07-.06.08,0,.14-.08a.32.32,0,0,1,.11-.05.6.6,0,0,1,.13,0h.29s0,0-.06,0,.06-.06.08-.08h0a.35.35,0,0,0-.15,0h0s0,.06,0,.07h-.05c-.06,0-.1,0-.13,0s0,0,0,0a.63.63,0,0,0-.19.08l-.08,0s-.09.12-.19.1v0l.07-.1S20,9,20.08,9s.16,0,.2,0,0,0,0,0-.18,0-.18,0v0h0l.18,0,.15,0h.14a.73.73,0,0,1,.19,0s0,0,0,0-.19,0-.18-.1.07,0,.06-.08a.1.1,0,0,0-.12,0h0s0,0,0,0h0s-.08,0-.11,0h-.21l-.11,0H20c.12,0,.16-.12.26-.16a.8.8,0,0,1,.15,0,1.3,1.3,0,0,0,.17,0h.09s.07-.08,0-.1-.08,0-.14.06l0-.08,0,0v0l.06-.07s.15,0,.17,0h0s0,0,0,0,0,0-.12,0h0s0,0,.05,0,0,0,0-.06l0,0h0s0,0,0-.05l.05,0s0,0,0,0l0,0s0,0,0-.06,0,0,.05-.06h-.08s-.06,0-.13,0h0l0,0h0a.1.1,0,0,0-.09,0h-.05a.58.58,0,0,1-.19,0c-.07,0-.13-.1-.22-.11H20a.35.35,0,0,1-.21-.07s0,0,0,0-.07,0-.08,0,.08-.09.15-.08l.11,0s.12,0,.16,0a1,1,0,0,1,.24.1.47.47,0,0,0,.13.07.91.91,0,0,0,.21,0,.07.07,0,0,0,0-.06h-.06a.14.14,0,0,1-.12,0h.12c0-.05-.13,0-.13-.08s.1,0,.13,0-.28,0-.28-.11h0s.17.07.2,0a.15.15,0,0,0-.11,0h0s0-.06,0-.08-.17.09-.23.06l0-.05,0,0,.15-.08h0a.31.31,0,0,0-.11,0s-.09.08-.15,0l0,0h0l.24-.07,0,0a.68.68,0,0,1-.21.06h-.07s-.06,0-.07,0A.15.15,0,0,0,20.22,7c-.07,0-.1.06-.11.08h0s0,0,0,0h0s-.06,0-.1.08a.16.16,0,0,1-.08.17.52.52,0,0,1-.29,0l-.08,0s0,0,0-.05,0,0,0,0l.16,0,.11-.07s.07,0,.06-.06h0l0,0a.25.25,0,0,1-.19,0c0-.05.14-.09.18-.14s0-.05,0-.07-.15,0-.19,0h0a.37.37,0,0,1,.15,0h.09s.08,0,.09,0v0c0-.06,0-.1-.12-.09s0-.07,0-.12h-.05l-.07,0h-.07s.06-.05.09-.08,0,0,0,0,0,0,0,0l-.07,0-.06-.05,0,0s0-.05,0-.06h.06l0,0S19.46,6,19.49,6a1.38,1.38,0,0,1-.21,0h0a2.08,2.08,0,0,0,.2-.11l0,0s.06,0,.07,0-.12-.08-.15-.1a.22.22,0,0,0-.1-.17s-.08,0-.1,0l0,0a.45.45,0,0,1-.1-.19.54.54,0,0,0,0-.14H19s0,0,0,0-.1,0-.12,0,0-.07,0-.09-.12,0-.17,0,0,0-.06,0a.2.2,0,0,0-.09,0h0s0-.09-.08-.09-.1.1-.15.1a.19.19,0,0,1,0-.07h0a.13.13,0,0,1-.09.07s-.05,0-.1,0,0,0,0,0,0-.08,0-.13a.11.11,0,0,0-.14.08h0s0,0-.05-.05h0c-.06,0,0,0,0,.08a.33.33,0,0,1-.35-.14l-.05-.07s0,0,.09,0h0l.08,0,.12,0h0a.58.58,0,0,1-.24-.07s0-.06,0-.09h0s0,0-.08,0-.12,0-.09-.07l.07-.05a.13.13,0,0,1,.08,0h.1l.27,0a.37.37,0,0,0,.15,0h0a.15.15,0,0,0-.07,0c-.05,0-.15,0-.16,0v0c.08,0,.28,0,.32,0s0,0,.08,0,0,0,.08-.1a.16.16,0,0,0-.1-.08l0,0-.08,0a.84.84,0,0,1-.19,0l-.1,0c-.06,0,0-.05-.12-.07s0,0,0,0l.11,0h-.13s.08,0,.11-.06h0a.91.91,0,0,1-.21-.06l-.11,0a.2.2,0,0,0-.07-.14h0a.37.37,0,0,0,.13-.06l0,0s0,0,0,0l0,0a.39.39,0,0,1,.17,0l.08,0s.05,0,.09,0h.06l.09-.06L18,3.44a1,1,0,0,1,.22,0l.14,0h.07a.24.24,0,0,0,.17-.12l0,0,0,0A.49.49,0,0,1,18.72,3s.09-.05.12-.08,0,0,0,0h0c0,.07-.17.09-.28.08s-.12,0-.12,0,.1-.09.12-.14,0-.05,0-.08l.14-.06a.34.34,0,0,0,.18-.14.54.54,0,0,0,.12,0l0,0a.82.82,0,0,1,.22,0s.08,0,.1,0,0,0,0-.05a.06.06,0,0,0,0,0s.09-.06.09-.09l0,0a.45.45,0,0,1,.09-.17.2.2,0,0,1,.11,0c.09,0,.06.16.16.15h0s0-.05,0-.08l-.09-.1h0A.49.49,0,0,0,19.73,2l.12,0,.05,0c.06,0,.08,0,.15,0a.16.16,0,0,1,0-.05c.15-.12.18.14.23.19h0s0,0,0,0a.62.62,0,0,1,.3.17h0l0,0a.27.27,0,0,0-.07-.05l-.06-.06s.1,0,.13,0S20.56,2,20.53,2s0-.17.06-.19.11,0,.15.06h0l.07,0a.89.89,0,0,1,.12,0c.06,0,.13.12.2.14h0a.06.06,0,0,0,0,0h0s0,0,0,0a.44.44,0,0,1,.08-.18l0,0s-.09,0-.12,0a1,1,0,0,1-.14-.1S21,1.63,21,1.6a1,1,0,0,1,.29,0s.07,0,.09,0a.14.14,0,0,1,0,.06h0l.12-.07s-.15-.08-.23-.07l-.16,0a.68.68,0,0,1-.16,0h-.13s.07,0,.1,0l0,0a.24.24,0,0,0,.15,0h0s-.21,0-.14-.07h0l0,0s.08,0,.11,0l0,0s0,0,0,0,.11,0,.11,0,0,0,0,0a.22.22,0,0,0,.14,0h.1l.07,0h0c0-.06,0-.09,0-.14l0,0s-.15-.07-.1-.1h.06v0l.13,0s0-.05,0-.07a.38.38,0,0,1,.1,0,1.22,1.22,0,0,1,.44-.11c.06,0,.09,0,.15,0s0,0,.07,0a.12.12,0,0,1,.07,0c.06,0,.15,0,.12.06s-.21.08-.31.12-.09.07-.15.1a.19.19,0,0,1-.1,0h0s0,0,0,0l-.06,0L22,1.37s0,0,0,.05h0s0,0,0-.05.07,0,.1,0,0-.1.12-.12h.06s0-.08.09-.11l.16,0h.05c.06,0,.15-.07.17-.11h0l.1,0,0,0s0,0,0,0,.05,0,.09,0h0s0,0,0,0h0a1.08,1.08,0,0,1,.23,0h.07c0,.1-.11.3-.23.34H23l-.2.05-.1,0-.07,0h0c-.05,0,0,.09-.06.13s-.12.09-.13.12,0,0,.05,0,.09-.08.12-.1l.1-.07,0,0v0l.05,0,0,0L23,1.51h.06l0,0s0,0,.05,0l0,0c.06.1-.13.15-.11.23s0,0,.06,0,.11-.2.21-.25a.37.37,0,0,0-.08-.13s.05-.06.1-.07a.35.35,0,0,1,.23.16s0,.05,0,.08a.3.3,0,0,1,.07.14.4.4,0,0,0,0,.2h0a.69.69,0,0,0,0-.1V1.77a1.37,1.37,0,0,1,0-.26l0-.11h.08c.06,0,.13-.05.13-.08s0-.05-.05-.09l0-.08ZM26.4,4.65h0ZM47.74,24.81s0,.08,0,.1-.16,0-.25,0-.06.14-.1.22l-.07,0-.19,0-.33.11a.39.39,0,0,0-.19.15c0,.07,0,.11-.07.14s-.48.12-.7.24c-.06,0-.08.11-.14.14s-.14,0-.21,0-.19.12-.31.16-.19,0-.27,0l-.16.13c-.15.1-.41.13-.5-.05v-.2a2.71,2.71,0,0,1-.15-.45c0-.05,0-.08,0-.12l0-.18a.83.83,0,0,0-.21-.31l-.09-.07-.24-.5c-.07-.08-.21-.1-.27-.18l-.14-.2c0-.13,0-.3,0-.41l-.18-.32c-.09-.09-.21-.12-.29-.22s-.07-.27-.15-.37-.17-.28-.27-.43l-.13-.16H42c0-.11.07-.24.09-.37l0,0-.2-.51a.61.61,0,0,0,.16-.3l0-.12a2.39,2.39,0,0,1,.28-.52c-.05-.12,0-.19-.07-.3a.52.52,0,0,0,.06-.14l0-.08s.08-.06.12-.1v0l0,0h0a1,1,0,0,1-.11.1c-.1,0-.13-.06-.26-.06s-.11.08-.14.15a.68.68,0,0,1-.34,0c-.09,0-.12-.11-.18-.15a.55.55,0,0,0-.35-.08l0,.2h0c-.06,0-.18,0-.27,0l-.07-.16s0,0-.07,0-.06,0-.13,0l-.06.06h0l0,0s0,0,0,0h0l-.18,0,0,0,.08,0v0L40,19.38s0-.1,0-.15a1.11,1.11,0,0,0-.2-.06v0l0-.06a.22.22,0,0,0,.08,0s0,0,0-.06a.07.07,0,0,1,0-.07.13.13,0,0,0,.08,0l0,0h-.05s0,0,0-.06a.07.07,0,0,0-.06,0l0,0a.1.1,0,0,0,.05,0h0l-.23,0c0-.06,0-.11,0-.17s0,0,.06-.06a.41.41,0,0,1,.23-.09c0,.05.08.06.14,0v0l0,0h0a.12.12,0,0,1,.08,0l0,0a1.44,1.44,0,0,1,.31,0l0,0h0l-.07,0s0,0,0,0a.88.88,0,0,0,.25,0h-.14s0-.05-.07-.08l0-.07.25,0,.05,0c.11,0,.16.08.29,0s0,0,0,0c.16-.05.29-.16.46-.21s.33.07.49,0c0,.05,0,.11.11.13s.13,0,.16,0,0,.1.11.13.15,0,.26.07a1.15,1.15,0,0,0,.35,0l.14,0c.1,0,.19.06.3,0s.36-.14.29-.4l0-.14c-.06-.1-.25-.12-.34-.19v-.05c-.06,0-.12-.09-.16-.12a1.22,1.22,0,0,0-.25-.19l-.12,0s0-.06-.09-.09a.1.1,0,0,1-.08,0,1.35,1.35,0,0,1-.14-.18,1.09,1.09,0,0,0,.19,0c0-.09.05-.13.08-.21a.19.19,0,0,0,.13,0,.62.62,0,0,0-.18-.16l0,0a.67.67,0,0,0,.37-.14l0-.06-.25,0s0,0,0,0l-.2,0-.06.07-.34.06s0,0-.09.06,0,0,0,0l0,0h0a.25.25,0,0,1-.07.12,1.12,1.12,0,0,0-.28,0h0a.47.47,0,0,1,.3.27c.08,0,.15,0,.21,0l.17,0a.35.35,0,0,1-.06.1l-.1,0s-.07,0-.12,0l-.09.08h-.14c-.16.06,0,.13-.3.08v0c.1-.24,0-.21-.23-.24v0c.07-.07.24-.1.3-.17l0-.07c-.17,0-.33,0-.41-.08h0l.06-.06h0l-.06-.07h0l0,0c-.37,0-.28.17-.46.28s-.17,0-.14.12l0,.06-.06.13c-.2,0-.22.17-.26.35v.11s-.09,0-.11,0,0,.13,0,.2a.23.23,0,0,0-.09.07v0c.08,0,.16.22.24.27s.15,0,.19.08a.34.34,0,0,1-.06.09c-.14,0-.12-.06-.25,0s-.1,0-.14,0l0,.08-.17.07s-.07.09-.12.11l0-.09.09-.05h0a.63.63,0,0,1-.13,0l0,0c0-.12-.22,0-.26-.11a.25.25,0,0,1-.14,0s0,0,0,0-.07,0-.19.06h0c0,.09.12.11.17.18h0l0,0a.1.1,0,0,0-.08,0l0,0s.05,0,.08.08v0h0a.15.15,0,0,0-.13-.09h0s.06.06.1.1h-.1c0-.11-.1-.09-.13-.17l0,0v0h0s0,0-.07.05l0,0a.11.11,0,0,0,0,.08,1.37,1.37,0,0,0,.2.28l0,0h0a.1.1,0,0,0,0-.06s0,0-.07,0h0l0,.08-.09,0h0c.07,0,.37.17.38.22h0l0,.11,0,0h0s-.06-.1-.11-.11l-.13,0a.31.31,0,0,1,.05.1h.06s0,0,0,.06-.06,0-.07,0l0,0,0,0h0l-.1,0v0a.65.65,0,0,1,.09.26s-.08,0-.13,0l0,.05h0s-.06-.15-.1-.13l-.05,0-.05,0s0-.09,0-.13l-.1-.13.06-.1c.07,0,.11,0,.14,0s.2.16.29,0h0c-.09,0-.13-.06-.2-.08a.86.86,0,0,0-.32,0l-.1-.15h0s.07,0,.1,0h0l0,0a.24.24,0,0,1-.25-.16l0-.08c0-.06-.15-.07-.17-.14h0a.12.12,0,0,0,0-.09l0-.09s0-.17,0-.21,0,0,0-.06L37.85,18l-.08-.1c-.12-.08-.25-.14-.37-.22s-.08-.09-.13-.12l-.15-.06s-.08,0-.1,0-.17-.14-.24-.24h.1c-.23-.07-.08-.26-.31-.35l0,.13-.08.06a1.27,1.27,0,0,1-.09-.23.08.08,0,0,0,.07,0l0,0h-.14v0a.55.55,0,0,0-.22.06L36,17h0c0,.06,0,.06.05.1s0,0-.07.07a.4.4,0,0,0,.25.31s.09,0,.12.07,0,.13.06.19a1.09,1.09,0,0,0,.23.28c.08.08.33,0,.38.07v0a.24.24,0,0,0-.09.06l0,0a1.47,1.47,0,0,1,.67.4l0,.12-.1-.06s0,0,0-.07-.19,0-.18-.1-.18.14-.18.24l.17.09a.12.12,0,0,0,0,.12l0,0a.15.15,0,0,0-.14.06s0,.07,0,.1-.1.09-.13.15h-.07l0,0v-.07A.09.09,0,0,0,37,19l0,0h.06a1.52,1.52,0,0,0-.16-.41s0,0-.06,0l-.12-.08a.11.11,0,0,0,0-.09l-.06-.05-.1,0v0h0l0,0h0l-.08,0c0-.18-.17-.13-.31-.21s-.29-.24-.46-.34-.18-.45-.38-.55a.32.32,0,0,0-.38,0l-.07.08-.13,0c-.15.1-.21.22-.42.27s-.15-.08-.22-.1-.09,0-.12,0-.15-.11-.3,0,0,.28-.09.46-.18.07-.25.13l0,.05c-.12.08-.28,0-.36.14s0,0,0,0h0a.73.73,0,0,0-.32.4l.06.14.09,0v0a.47.47,0,0,0-.27.29s0,0,0,.06-.22,0-.27.1,0,.11-.1.16l0,0a.44.44,0,0,0-.1,0h-.45l-.09.08c-.1,0-.14,0-.16.12h0v0h0s0,0,0,0a.17.17,0,0,1-.21-.16l0,0a.2.2,0,0,0-.26-.17l-.12.06s-.07,0-.09,0a.27.27,0,0,0-.2,0h0s0-.1,0-.14a.19.19,0,0,0,0-.14h0l0-.15h0a.23.23,0,0,1-.11,0v0h0a.11.11,0,0,0,.1,0l0,0h0s0,0-.07.06,0,0,0,0a.38.38,0,0,0,0-.18c.15-.08.21-.57.13-.75a1,1,0,0,0,.07-.22.18.18,0,0,0-.15-.14s0,0,0-.06a.18.18,0,0,1,.18-.09h.08l0-.09c.13,0,.21,0,.33,0s.17,0,.24-.06l.32.07c.15,0,.4.06.47,0a.65.65,0,0,0,.34.07,1.94,1.94,0,0,0,.11-.39l0,0,0,0,0,0a.61.61,0,0,1,0-.28h0l.09.11c0-.09-.07-.12-.12-.18a.32.32,0,0,1,0-.12c-.07-.14,0-.08-.17-.14l-.11-.13,0-.06a.63.63,0,0,1-.15-.1l0-.06,0,0-.08,0a.56.56,0,0,0-.4-.12v0s-.07,0-.08-.05l.1,0h0v0s-.06,0-.05,0,0,0,.05,0l-.12,0v-.08c.08,0,.13-.05.2-.06h0a.26.26,0,0,0,.1,0l0,0H32l.07.1a.74.74,0,0,0,.25-.05v0a.17.17,0,0,0,.1,0s0-.1,0-.18a.23.23,0,0,1-.1-.17.62.62,0,0,0,.18,0,.2.2,0,0,0,0,.13c.13-.06.28.07.39,0l-.06,0v0c.08-.09.21-.07.32-.14s0-.19.08-.29l.13-.06h.1l.15-.1c.07,0,.15,0,.19,0a.12.12,0,0,0-.06-.06l.2-.17.1-.26.09,0a.18.18,0,0,1,.06.07l0,0h0a.18.18,0,0,1,0,.1c.07,0,.1,0,.15,0s.06,0,.07-.1a.11.11,0,0,1-.07,0,.09.09,0,0,1,0-.06H34.2a.46.46,0,0,1,0-.13c.09,0,.26-.12.37-.07s0,0,.07.07h0v0s0,0-.05-.06V14.1a.7.7,0,0,1,.25,0,.37.37,0,0,1,0,.1h0l0,0,0-.05.09,0c0-.05,0-.07,0-.12s.1,0,.14,0l-.06,0v0l0,0,0,0,0,0s-.08,0-.09,0a.14.14,0,0,0,.1,0c0-.05-.07-.09-.09-.13s0-.16,0-.22,0,0-.08,0l0,0,0,0a.34.34,0,0,1,.07-.11c0-.1-.08-.16,0-.26s.09,0,.12,0,0-.08.09-.11l0,.08,0,0,0-.14a.53.53,0,0,1,.23,0s0,.12,0,.14h.14s0,.13,0,.14l-.05,0,0,0-.06,0c0,.09,0,.1-.06.17h-.08l0,0a.36.36,0,0,0-.08.21c.06,0,.17.1.12.19s0,0,.06,0,.06,0,.11,0h.13l0,0a.34.34,0,0,1-.09.09v0a.09.09,0,0,0,.09,0h0v0h.06c0-.07.36-.18.41-.18s.13.07.2.11V14l.19.08c0-.05,0-.07,0-.13a2.93,2.93,0,0,0,.77-.26c.06,0,.26-.07.25,0a.25.25,0,0,1,0,.11c.16.06.24,0,.35-.09a.73.73,0,0,1,0-.15.76.76,0,0,0,.33,0,.13.13,0,0,0,0-.08h0s0,0,0,0a1,1,0,0,1-.06-.52l.09-.07s0-.08,0-.12l.09-.11c.1,0,.14,0,.24-.05v0l.13.09,0,.11a.19.19,0,0,0,.29-.07.84.84,0,0,1,0-.41l0,0-.07.06-.11,0c0-.05,0-.1,0-.16l-.05,0c0-.06,0-.09,0-.15s0,0,0-.06a.5.5,0,0,0,.25-.09h.09v0l.13,0,0,0s.11,0,.18,0a4,4,0,0,0,.41.06s.08-.06.1-.06l0,0c0-.05,0-.06-.06-.1v0h0s0,.05.07,0,0,0,0,0,0,0,.09,0,.06-.09.13-.1a.68.68,0,0,0,.2.06l0,0c-.13-.24-.31,0-.44-.21,0,0,0-.11,0-.1l0,0a.52.52,0,0,0-.27.1l-.06,0a.11.11,0,0,0-.08,0l-.1,0v-.05a.11.11,0,0,1,0,.08s-.12,0-.14.08h0l-.08-.05c0,.05-.1.06-.15.09v0a.23.23,0,0,0-.14.09s-.06,0-.12,0v0s-.15.08-.21,0a.14.14,0,0,1-.08-.08l0-.06a.38.38,0,0,0-.16,0s0,0,0-.07-.08,0-.13,0-.15-.17-.11-.34l0-.11-.09-.14a1.21,1.21,0,0,0,0-.19l-.08-.06a.36.36,0,0,1,.14-.2v-.07a.18.18,0,0,1,.14,0c.13-.06.06-.17.14-.25h0l0,.05h0a3,3,0,0,1,.55-.53h.11s0-.05,0-.07l0-.05a.28.28,0,0,0,0-.14l0-.05a.31.31,0,0,1-.24-.1c-.07,0-.26,0-.28,0l-.14-.09c-.1,0-.11.16-.19.22s-.1,0-.17.09.06.06,0,.09a.3.3,0,0,1-.14.12l0,0s.08.07.11.12v0c-.1,0-.1.14-.17.22l-.27.18-.06,0c-.06,0-.06.08-.1.12s-.13.07-.2.17H37.5s0,.08,0,.1l-.06.08-.1,0c0,.14.07.17,0,.32l-.06,0c0,.09.06.33,0,.36h0a.24.24,0,0,1,.12,0h.07a.28.28,0,0,0,.22.18c0,.07.06.08.06.16h-.05s-.21.18-.28.14-.3-.11-.33-.07l0,0h0c.12,0,.17.07.27.09s.16-.08.25,0v0h0v0h-.07V12c-.06,0-.09,0-.1.1h-.06V12c-.08,0,0,.18-.17.15v0h-.16c0,.06.15.22.06.29h-.06v.07l0,0s0,.07,0,.09a.47.47,0,0,0-.05.12v.11l-.16.29h0l-.06,0a.79.79,0,0,1-.23,0v0s0,0,0,0-.07.07-.09.12,0,.05,0,.08l0,0c-.11,0-.21,0-.34,0s0-.07,0-.12a.55.55,0,0,1-.14-.2l.06,0v0h.05v0a.64.64,0,0,1-.22-.29h0a.22.22,0,0,0-.07-.18.35.35,0,0,0,0-.15.1.1,0,0,0-.08,0,.23.23,0,0,1,0,0h-.05c0-.07,0-.2-.05-.22s0-.06,0-.1h0c-.1,0-.1,0-.15-.09s0,0,0-.08l0,0a.24.24,0,0,1-.07.2s-.09,0-.13,0-.05.05-.09.09-.22.16-.32.25a.73.73,0,0,1-.32,0s0,0,0-.05l0,0,0,0,0,0c-.1,0-.16-.07-.28-.1l-.05-.1a.12.12,0,0,0,0-.1h0v.05h0s0,0,.08,0l0,0s0,0,.05,0h0c-.06,0-.05,0-.09,0s0,0,0,0l.1-.06h0a.09.09,0,0,1-.08,0,.44.44,0,0,0,.06-.07l-.08.07h0a.07.07,0,0,0,0-.06v.07a.23.23,0,0,1-.09,0l0,0v0l0,0,0-.08.07-.08h0v0h0v0s0,0,.07,0v0a.13.13,0,0,0,.11-.05.25.25,0,0,1-.11,0l0,0,0,0s.06,0,.06-.1-.15,0-.2,0l.12-.1,0,0a.1.1,0,0,1-.11,0v0c0-.08.05-.08.1-.13h0c-.05,0-.06-.06-.09-.1s0-.12,0-.19h.18v0s-.08,0-.1-.06v0c.09,0,.13-.1.22-.07s.06-.05.08-.13.18.06.24,0-.13,0-.14-.1l0,0a.89.89,0,0,1,.3,0c0-.09.13-.27.2-.22l.05,0h0c0-.07.11-.09.14-.15l0-.09a.76.76,0,0,1,.28-.25c.06,0,.09,0,.14,0h0l0-.05c.07-.06.11-.14.18-.21h.11s0-.08,0-.12l-.06,0c.06-.1.06-.22.21-.19l0-.12.12,0h0c0-.06-.08-.07-.12-.12l.06-.09h.16l-.06-.1h0c.07,0,.21-.05.25-.12s0,0-.05-.06.07-.06.11-.09l.11,0s0,0,.09-.06v0s0,0,0-.07.06-.09.12-.09h0a.17.17,0,0,0,.08.08h0l.05-.08,0-.13a.15.15,0,0,0,.16,0h0L37.24,8,37.29,8c.1,0,.07-.1.13-.14s.14,0,.2-.18l.07.06c.12,0,.15,0,.27,0s.1-.24.18-.28h0v0a.92.92,0,0,0,0,.17.35.35,0,0,0,.14-.21.22.22,0,0,0,.18-.12h0l.11.1c.09-.32.18-.16.35-.07a.5.5,0,0,1,.15-.25s.08,0,.11,0a.42.42,0,0,1,.43-.18c-.09.12-.2.14-.2.36h0a1,1,0,0,1,.35-.39c0,.08,0,.17,0,.25A.41.41,0,0,0,40,6.89c.07,0,.17,0,.22,0a.77.77,0,0,0-.12.25l.11,0a.39.39,0,0,1,.13-.24l.36.34a2.15,2.15,0,0,1-.36,0c.07.09.19.11.25.2s.23,0,.33,0h0c.49.49,1,1,1.4,1.53l-.57-.18-.19,0c-.08,0-.11-.23-.31-.13a2.7,2.7,0,0,0,.33.3c.08,0,.22.06.28.13a.16.16,0,0,1-.06.26,1.76,1.76,0,0,0,.2.48c.08,0,.2,0,.26.05a.21.21,0,0,0,.06.1s.13,0,.19,0,.37,0,.24-.19c0,0-.12,0-.17,0a.39.39,0,0,1-.17-.21s0-.11.14-.12a2.12,2.12,0,0,0,.32.16,23.58,23.58,0,0,1,3.65,6.69c-.06,0-.1-.07-.18-.08s-.26.14-.37.18h-.11c-.07,0-.1.12-.2.14a.07.07,0,0,1,0,.06l0,0c-.07,0-.16.11-.25.07v0a.89.89,0,0,1-.11.26s-.1,0-.1.12v0s.05,0,.08,0a.27.27,0,0,1,.1.26h0l0-.1h0a0,0,0,0,1,0,0c0,.08-.07.21,0,.28s0,.05,0,.1h0a1,1,0,0,1,.13.19l.05,0a1.16,1.16,0,0,1,.14.17s0,.08,0,.12a1,1,0,0,0,.09.11c0,.07.17,0,.22.1v0h0c-.24-.1-.26.15-.25.3h0l0,.08h0a.05.05,0,0,0,0,0h0c0,.15-.1.33-.05.5l.32.09c.1.27.49.24.78.18.08,0,.2,0,.25,0s0-.29,0-.38,0-.06,0-.1,0-.13,0-.18-.08-.06-.1-.12-.08,0-.11,0v0l0,0H47v0a.1.1,0,0,1-.06,0v0l0-.05a.57.57,0,0,1-.19,0,.42.42,0,0,1,0-.33l0,.09H47v0h0s0,0,0,.06h0l.09,0h0a23.64,23.64,0,0,1,.65,4.08s0,0-.08,0a.5.5,0,0,0-.29,0s-.14.12-.18.16-.12-.07-.18-.09a1.37,1.37,0,0,1-.3-.09l-.13-.15c-.08-.06-.22-.05-.28-.13a1.83,1.83,0,0,1-.17-.3v-.09c0-.06-.12-.13-.16-.19s-.18,0-.22,0a.12.12,0,0,1,0-.09h0c-.08,0-.07.09-.12.14s-.19,0-.21,0l0,.11h0l-.06.07,0,0,.1,0a4.4,4.4,0,0,0,.19.5.18.18,0,0,1,.1,0s0,0,0,.06.17.08.22.15,0,0,0,.07l0,.06c0,.1,0,.11,0,.21s0,0,.07,0a.67.67,0,0,0,.1.28c.05,0,.05,0,0-.08a.38.38,0,0,1,.06-.37h0s0,0,0,.05a2,2,0,0,1,0,.25c0,.08-.1.11-.07.19s.07,0,.06.07h.18s0,0,0,0a1,1,0,0,0,.43,0v0a.09.09,0,0,0,.09,0s0,0,.06-.06l.06-.12a1.39,1.39,0,0,1,.28-.24l.12-.16h0a.27.27,0,0,1-.05.21s0,0,.05,0,0,.12,0,.18a.5.5,0,0,0,.15.19c0,.3,0,.6,0,.9s0,.36,0,.54a.19.19,0,0,0-.11.1ZM39.8,18.1l0,0v0a.12.12,0,0,1,.07,0h0s0,0,0,0ZM46.28,17c0-.05,0,0,.07-.07l0-.09s.06,0,.09,0l.23,0q.17.52.31,1.05a1,1,0,0,0-.22,0c0,.07,0,.21,0,.27h0l-.07-.1v-.05l0,0s0-.08,0-.11l.08-.18c-.06-.07-.13,0-.21-.06a.26.26,0,0,0-.08-.1h-.08c0-.15-.1-.19-.12-.33a.53.53,0,0,1-.17,0v-.07l0,0c.11,0,.25.06.3,0l0,0a.18.18,0,0,1-.1-.07Z"/><path class="cls-4" d="M18.89,46.9a23.68,23.68,0,0,1-3.85-.3c-.36-.14-.73-.29-1.07-.45s-.87-.43-1.22-.64a22,22,0,1,0-.66-42.27c.52-.29,1.06-.57,1.54-.82a23.68,23.68,0,0,1,5.09-.57c12.75,0,23.12,10,23.17,22.43s-10.25,22.56-23,22.61Z"/><path class="cls-4" d="M5.86,8.45l.51-.5.24-.23c-.07.46-.13.93-.18,1.4A22,22,0,0,0,48.11,20.61l.15,1.24A22.54,22.54,0,0,1,26.08,34.48c-12.39-1.13-21.5-12.33-20.34-25,0-.34.07-.67.12-1Z"/><path class="cls-4" d="M45.59,12.88l.47.87A24.22,24.22,0,0,0,6.94,41.07c-.45-.46-1-1.08-1.5-1.65s-1-1.29-1.3-1.75a24.27,24.27,0,0,1-.66-11.86C6.08,12.34,19.39,3.59,33.19,6.26A25.8,25.8,0,0,1,45,11.91c.18.29.38.62.58,1Z"/><path class="cls-5" d="M32.7,9.43a2.78,2.78,0,1,1,2.78-2.78A2.78,2.78,0,0,1,32.7,9.43ZM7.37,22.61a3.2,3.2,0,1,1,3.21-3.2,3.2,3.2,0,0,1-3.21,3.2Zm6.24,20.85a2.19,2.19,0,1,1,2.19-2.19,2.19,2.19,0,0,1-2.19,2.19ZM22,13.78a2.12,2.12,0,1,1,2.12-2.12A2.12,2.12,0,0,1,22,13.78ZM40.8,33a3.26,3.26,0,1,1,3.26-3.26A3.26,3.26,0,0,1,40.8,33Z"/><path class="cls-4" d="M26.95,25.18A20,20,0,0,1,8.87,43l-.47-.45A19.34,19.34,0,0,0,10.46,4.37l.31-.21.46-.26A20,20,0,0,1,26.95,25.18Z"/><path class="cls-5" d="M84.17,35.79H79.92c-.31,0-.46-.14-.46-.42v-14a2.42,2.42,0,0,0-.29-1.2,3.29,3.29,0,0,0-.74-.91,3.11,3.11,0,0,0-1-.57,3,3,0,0,0-1-.19H73.69a2.43,2.43,0,0,0-1.5.57,2,2,0,0,0-.74,1.66v14.6a.37.37,0,0,1-.42.42H66.75a.37.37,0,0,1-.42-.42V20.77a2,2,0,0,0-.82-1.54,2.72,2.72,0,0,0-1.79-.7H59.84a1,1,0,0,0-.78.38,1.34,1.34,0,0,0-.32.88V35.37a.37.37,0,0,1-.42.42H54a.37.37,0,0,1-.42-.42v-19a2.31,2.31,0,0,1,.82-1.79,2.58,2.58,0,0,1,1.75-.74H64.9a4.15,4.15,0,0,1,2,.5,6.17,6.17,0,0,1,1.35.93l.48.48c.18.18.3.27.36.27s.13,0,.23-.15.22-.23.36-.4a6,6,0,0,1,.53-.55,2.93,2.93,0,0,1,.78-.51,4.19,4.19,0,0,1,1.7-.53l1.12-.06h3a7.51,7.51,0,0,1,3.16.65,8.56,8.56,0,0,1,2.46,1.66A7.52,7.52,0,0,1,84,18.43a5.79,5.79,0,0,1,.57,2.42V35.37a.37.37,0,0,1-.42.42Zm22.26,0h-4.25a.37.37,0,0,1-.42-.42V22a4.11,4.11,0,0,0-.31-1.73,2.52,2.52,0,0,0-.88-1.05,3.6,3.6,0,0,0-1.32-.53,8.66,8.66,0,0,0-1.64-.15H93.51a1.32,1.32,0,0,0-.86.34,1,1,0,0,0-.4.71V34.45q0,1.35-1.18,1.35H88.25a.91.91,0,0,1-.86-.5,2.45,2.45,0,0,1-.27-1.18V16.65A2.65,2.65,0,0,1,88,14.73a3,3,0,0,1,2.21-.86H99.7a6.58,6.58,0,0,1,2.82.61,7.85,7.85,0,0,1,2.29,1.62,7.36,7.36,0,0,1,1.54,2.32,6.92,6.92,0,0,1,.55,2.69V35.37c0,.28-.16.42-.46.42Zm7.7,0h-4.29a.37.37,0,0,1-.42-.42V14.29a.37.37,0,0,1,.42-.42h4.29a.37.37,0,0,1,.42.42V35.37a.37.37,0,0,1-.42.42Zm0-25h-4.29a.37.37,0,0,1-.42-.42V6a.37.37,0,0,1,.42-.42h4.29a.37.37,0,0,1,.42.42v4.29a.37.37,0,0,1-.42.42ZM140.35,29.9A8,8,0,0,1,139,33,6.62,6.62,0,0,1,136.52,35a9,9,0,0,1-4,.76h-14.9a.37.37,0,0,1-.42-.42V6a.37.37,0,0,1,.42-.42h15.15a7.6,7.6,0,0,1,2.8.5,6.47,6.47,0,0,1,2.23,1.45,6.86,6.86,0,0,1,1.49,2.29,8,8,0,0,1,.55,3,13.57,13.57,0,0,1-.38,3.6,6.9,6.9,0,0,1-.86,2,3.31,3.31,0,0,1-.86.93c-.25.15-.38.27-.38.36s.22.44.65.88.92,1,1.45,1.56a4.59,4.59,0,0,1,.53.88,9.36,9.36,0,0,1,.4,1,5.67,5.67,0,0,1,.23,1.05,7.81,7.81,0,0,1,.06.91,18.1,18.1,0,0,1-.38,3.79Zm-7.11-18.12a3.55,3.55,0,0,0-2.19-.69h-7.28a.37.37,0,0,0-.42.42v5.77a.37.37,0,0,0,.42.42H131a3.25,3.25,0,0,0,2.4-.73,3.84,3.84,0,0,0,.72-2.67,3,3,0,0,0-.92-2.5Zm1.62,13.3a2.92,2.92,0,0,0-.59-1,1.94,1.94,0,0,0-.8-.53,2.59,2.59,0,0,0-.82-.15h-8.88a.37.37,0,0,0-.42.42v6.1a.37.37,0,0,0,.42.42h8.88a1.8,1.8,0,0,0,1.18-.38,3,3,0,0,0,.76-.95,4.05,4.05,0,0,0,.4-1.2,6.76,6.76,0,0,0,.1-1.1,4.89,4.89,0,0,0-.23-1.62Zm26.7,10.71H146.87a2.83,2.83,0,0,1-2.06-.78,5.51,5.51,0,0,1-1.24-1.83,9.2,9.2,0,0,1-.61-2.11,10.83,10.83,0,0,1-.17-1.6,11,11,0,0,1,.25-2.23,8.38,8.38,0,0,1,.8-2.25,5.57,5.57,0,0,1,1.43-1.75,3.3,3.3,0,0,1,2.15-.71h7a2.71,2.71,0,0,0,1.75-.53,1.56,1.56,0,0,0,.65-1.24,2,2,0,0,0-.42-1.18,1.29,1.29,0,0,0-1.09-.59H144.26a.37.37,0,0,1-.42-.42V14.29a.37.37,0,0,1,.42-.42h11.87a5,5,0,0,1,2.71.69,5.65,5.65,0,0,1,1.81,1.79,7.81,7.81,0,0,1,1,2.44,11.68,11.68,0,0,1,.32,2.69V35.37a.37.37,0,0,1-.42.42Zm-4.71-7.87a.37.37,0,0,0-.42-.42h-7.49a1.18,1.18,0,0,0-1,.48,1.71,1.71,0,0,0-.38,1.07,2,2,0,0,0,.42,1.26,1.4,1.4,0,0,0,1.18.55h7.24a.37.37,0,0,0,.42-.42V27.92Zm26.3-8.71a3.26,3.26,0,0,1-.71,1.09L173,29.78a.82.82,0,0,0-.29.55c0,.23.15.34.46.34h9.68a.37.37,0,0,1,.42.42v4.29a.37.37,0,0,1-.42.42H169a5.47,5.47,0,0,1-3.68-.95,3.33,3.33,0,0,1-1-2.59,3.2,3.2,0,0,1,.36-1.49,5.29,5.29,0,0,1,1-1.33l9.72-9.68a.52.52,0,0,0,.17-.38c0-.25-.24-.38-.72-.38h-9.59a.37.37,0,0,1-.42-.42V14.29a.37.37,0,0,1,.42-.42h13.8a4.74,4.74,0,0,1,3.41.95,4,4,0,0,1,.93,2.88,4.08,4.08,0,0,1-.25,1.52Zm21.29,16.58H189.75a2.83,2.83,0,0,1-2.06-.78,5.51,5.51,0,0,1-1.24-1.83,9.1,9.1,0,0,1-.61-2.11,11,11,0,0,1-.17-1.6,11.09,11.09,0,0,1,.25-2.23,8.41,8.41,0,0,1,.8-2.25,5.6,5.6,0,0,1,1.43-1.75,3.3,3.3,0,0,1,2.15-.71h7a2.7,2.7,0,0,0,1.75-.53,1.55,1.55,0,0,0,.65-1.24,2,2,0,0,0-.42-1.18,1.29,1.29,0,0,0-1.1-.59H187.15a.37.37,0,0,1-.42-.42V14.29a.37.37,0,0,1,.42-.42H199a5,5,0,0,1,2.71.69,5.65,5.65,0,0,1,1.81,1.79,7.9,7.9,0,0,1,1,2.44,11.79,11.79,0,0,1,.32,2.69V35.37a.37.37,0,0,1-.42.42Zm-4.71-7.87a.37.37,0,0,0-.42-.42h-7.49a1.18,1.18,0,0,0-1,.48,1.7,1.7,0,0,0-.38,1.07,2,2,0,0,0,.42,1.26,1.4,1.4,0,0,0,1.18.55h7.24a.37.37,0,0,0,.42-.42V27.92Zm26.18,7.87H211.22a2.82,2.82,0,0,1-2.06-.78,5.49,5.49,0,0,1-1.24-1.83,9.15,9.15,0,0,1-.61-2.11,11,11,0,0,1-.17-1.6,11,11,0,0,1,.25-2.23,8.37,8.37,0,0,1,.8-2.25,5.6,5.6,0,0,1,1.43-1.75,3.31,3.31,0,0,1,2.15-.71h7a2.7,2.7,0,0,0,1.75-.53,1.56,1.56,0,0,0,.65-1.24,2,2,0,0,0-.42-1.18,1.29,1.29,0,0,0-1.09-.59H208.61a.37.37,0,0,1-.42-.42V14.29a.37.37,0,0,1,.42-.42h11.87a5,5,0,0,1,2.71.69A5.67,5.67,0,0,1,225,16.35a7.9,7.9,0,0,1,1,2.44,11.79,11.79,0,0,1,.32,2.69V35.37a.37.37,0,0,1-.42.42Zm-4.71-7.87a.37.37,0,0,0-.42-.42h-7.49a1.17,1.17,0,0,0-1,.48,1.69,1.69,0,0,0-.38,1.07,2,2,0,0,0,.42,1.26,1.4,1.4,0,0,0,1.18.55h7.24a.37.37,0,0,0,.42-.42V27.92ZM240,19h-4a1.14,1.14,0,0,0-.67.21,2.85,2.85,0,0,0-.53.48,2.1,2.1,0,0,0-.36.59,1.55,1.55,0,0,0-.13.57V35.37a.37.37,0,0,1-.42.42h-4.71a.37.37,0,0,1-.42-.42v-16a5.19,5.19,0,0,1,.44-2.1,5.68,5.68,0,0,1,3-3,5.29,5.29,0,0,1,2.14-.44H240a.37.37,0,0,1,.42.42v4.29A.37.37,0,0,1,240,19Z"/><path class="cls-5" d="M73.76,43.11c.76.37,1,.72,1,1.37a2.7,2.7,0,0,1-.87,2,3.45,3.45,0,0,1-2.49.65H69.57L71,39.59h1.76c1.54,0,2.25.47,2.25,1.47a2.09,2.09,0,0,1-1.22,2Zm-3.31,3.33h1c2,0,2.53-.75,2.53-1.78a1,1,0,0,0-.51-.94,3.78,3.78,0,0,0-1.6-.2H71l-.52,2.92Zm2.07-6.16H71.6l-.48,2.56H72a2.32,2.32,0,0,0,1.7-.42,1.68,1.68,0,0,0,.46-1.18c0-.72-.4-1-1.68-1Zm8.28,6.85H80l.16-.87a2.24,2.24,0,0,1-2,1,1.73,1.73,0,0,1-1.95-1.71,6.49,6.49,0,0,1,.09-1l.56-3h.75l-.56,3a4.88,4.88,0,0,0-.06.68,1.21,1.21,0,0,0,1.37,1.32c1,0,1.83-.57,2.13-2.15l.54-2.86h.75l-1,5.57Zm3,2H83l1.29-2.14-1.16-5.39H84L84.94,46l2.71-4.44h.8l-4.62,7.53Zm6.07-2h-.75l.23-1.28h.75l-.23,1.28Zm10.8-5.62h-.78c0-1.06-.48-1.34-1.08-1.34a1.62,1.62,0,0,0-1.59,1.56,1.08,1.08,0,0,0,.22.63c.14.15.3.22,1,.47a2.84,2.84,0,0,1,1.44.77,1.64,1.64,0,0,1,.33,1,2.78,2.78,0,0,1-2.74,2.64,1.81,1.81,0,0,1-2-1.81c0-.12,0-.26,0-.43h.81c0,1.1.44,1.55,1.29,1.55a1.83,1.83,0,0,0,1.8-1.8c0-.62-.34-.93-1.42-1.26-1.41-.44-1.6-.9-1.6-1.67A2.51,2.51,0,0,1,99,39.46a1.61,1.61,0,0,1,1.76,1.65,3.48,3.48,0,0,1,0,.39Zm6.65,3.09h-5c0,.12,0,.21,0,.29a1.75,1.75,0,0,0,1.82,1.69,2.68,2.68,0,0,0,2.18-1.27h.79a3.63,3.63,0,0,1-3.1,2,2.33,2.33,0,0,1-2.41-2.37A3.57,3.57,0,0,1,105,41.42a2.27,2.27,0,0,1,2.41,2.32,4.51,4.51,0,0,1-.09.85Zm-2.46-2.47a2.66,2.66,0,0,0-2.44,1.79h4.27a1.74,1.74,0,0,0-1.83-1.79Zm4.4,5h-.75l1.4-7.53h.75l-1.39,7.53Zm2.65,0h-.75l1.4-7.53h.75l-1.39,7.53Zm3,0h-.75l.23-1.28h.75L115,47.12Zm11.68,0L126,44.59h-3.5L121,47.12h-.79l4.63-7.53h.84l1.85,7.53Zm-1.6-6.67L123,43.9h2.92l-.81-3.45Zm9.24,3.75-.54,2.92H133l.54-2.92a4.48,4.48,0,0,0,.08-.75,1.28,1.28,0,0,0-1.42-1.33c-1,0-1.78.57-2,1.95l-.57,3.07h-.75l1-5.57h.75l-.13.72a2.68,2.68,0,0,1,1.92-.86,1.8,1.8,0,0,1,2,1.84,4.32,4.32,0,0,1-.11.94Zm2.51,4.88H136l1.29-2.14-1.16-5.39H137l.94,4.44,2.71-4.44h.81l-4.62,7.53Zm8.65-7.53-.12.68H144l-.91,4.89h-.75l.91-4.89h-1.14l.12-.68h1.14l.37-2h.75l-.37,2Zm5.81,2.58-.55,3H150l.55-3a6.29,6.29,0,0,0,.07-.73,1.3,1.3,0,0,0-1.41-1.28,2.08,2.08,0,0,0-2,2l-.57,3.06h-.75l1.4-7.53H148l-.5,2.68a2.52,2.52,0,0,1,1.88-.86,1.79,1.79,0,0,1,2,1.87,3.78,3.78,0,0,1-.1.84Zm3.27-3.19h-.75l.24-1.28h.75l-.23,1.28Zm-1.15,6.18h-.75l1-5.57h.75l-1,5.57Zm7.34-2.92-.54,2.92h-.75L160,44.2a4.56,4.56,0,0,0,.08-.75,1.28,1.28,0,0,0-1.42-1.33c-1,0-1.78.57-2,1.95L156,47.12h-.75l1-5.57h.75l-.13.72a2.69,2.69,0,0,1,1.92-.86,1.8,1.8,0,0,1,2,1.84,4.34,4.34,0,0,1-.11.94Zm7.12,1.92a3.72,3.72,0,0,1-.92,2.19,3.32,3.32,0,0,1-2.46,1,2.15,2.15,0,0,1-2.39-2h.73c.46,1.07.87,1.33,1.8,1.33a2.38,2.38,0,0,0,2.44-2.25l.07-.38a2.7,2.7,0,0,1-2.35,1.26,2.3,2.3,0,0,1-2.42-2.36,3.59,3.59,0,0,1,3.45-3.47,2,2,0,0,1,2,1.12l.18-1h.75l-.86,4.57Zm-2.16-4a2.68,2.68,0,0,0-2.56,2.61,1.69,1.69,0,0,0,1.76,1.84,2.75,2.75,0,0,0,2.6-2.75,1.7,1.7,0,0,0-1.8-1.7Zm5,5H170l.23-1.28h.75l-.23,1.28ZM182,40.28h-3.36l-.51,2.7h3.25l-.12.68H178l-.52,2.78h3.36l-.12.68h-4.12l1.4-7.53h4.12l-.12.68Zm3.13,6.85h-.79L183,41.55h.76l1.09,4.69,2.86-4.69h.76l-3.37,5.57Zm9.72-2.54h-5c0,.12,0,.21,0,.29a1.75,1.75,0,0,0,1.82,1.69,2.68,2.68,0,0,0,2.18-1.27h.78a3.63,3.63,0,0,1-3.1,2A2.33,2.33,0,0,1,189,44.88a3.57,3.57,0,0,1,3.46-3.46,2.27,2.27,0,0,1,2.41,2.32,4.53,4.53,0,0,1-.09.85Zm-2.46-2.47a2.66,2.66,0,0,0-2.44,1.79h4.27a1.74,1.74,0,0,0-1.83-1.79Zm7-.69-.14.74a2,2,0,0,0-1.89,1.71l-.6,3.25H196l1-5.57h.75l-.14.79a2,2,0,0,1,1.75-.93Zm1.43,7.66H200l1.29-2.14-1.16-5.39H201l.94,4.44,2.71-4.44h.8l-4.61,7.53Zm10.52-2h-.81l-.53-3.7-1.89,3.7h-.81l-1.1-5.57h.75l.91,4.67,2.06-4h.62l.57,4,2.68-4.67h.73l-3.19,5.57Zm8.94-3-.55,3H219l.55-3a6.76,6.76,0,0,0,.07-.73,1.3,1.3,0,0,0-1.42-1.28,2.08,2.08,0,0,0-2,2l-.57,3.06h-.75l1.4-7.53H217l-.5,2.68a2.52,2.52,0,0,1,1.88-.86,1.79,1.79,0,0,1,2,1.87,3.78,3.78,0,0,1-.1.84Zm7.4.46h-5c0,.12,0,.21,0,.29a1.75,1.75,0,0,0,1.82,1.69,2.68,2.68,0,0,0,2.18-1.27h.78a3.63,3.63,0,0,1-3.1,2,2.33,2.33,0,0,1-2.41-2.37,3.57,3.57,0,0,1,3.46-3.46,2.27,2.27,0,0,1,2.41,2.32,4.41,4.41,0,0,1-.09.85Zm-2.46-2.47a2.66,2.66,0,0,0-2.43,1.79h4.27a1.74,1.74,0,0,0-1.84-1.79Zm7-.69-.14.74a2,2,0,0,0-1.9,1.71l-.6,3.25h-.75l1-5.57h.75l-.14.79a2,2,0,0,1,1.75-.93Zm6.33,3.17h-5c0,.12,0,.21,0,.29a1.74,1.74,0,0,0,1.82,1.69,2.68,2.68,0,0,0,2.18-1.27h.78a3.63,3.63,0,0,1-3.1,2,2.33,2.33,0,0,1-2.41-2.37,3.57,3.57,0,0,1,3.46-3.46,2.27,2.27,0,0,1,2.42,2.32,4.43,4.43,0,0,1-.09.85Zm-2.46-2.47a2.66,2.66,0,0,0-2.44,1.79H238a1.74,1.74,0,0,0-1.83-1.79Zm4.79,5h-.75l.23-1.28h.75l-.24,1.28Z"/></g></g></svg>