<svg xmlns="http://www.w3.org/2000/svg" viewBox="0 0 32.68 32.68"><defs><style>.cls-1,.cls-2{fill:#fff;}.cls-1{fill-rule:evenodd;}.cls-3{fill:none;stroke:#fff;stroke-miterlimit:10;}</style></defs><title>tile-versatility</title><g id="Layer_2" data-name="Layer 2"><g id="Layer_2-2" data-name="Layer 2"><path class="cls-1" d="M12.89,30.66a14.85,14.85,0,0,1-2.41-.19l-.67-.28c-.29-.13-.54-.27-.77-.4A13.75,13.75,0,1,0,8.63,3.33l1-.51a14.82,14.82,0,0,1,3.18-.36,14.28,14.28,0,0,1,14.51,14,14.28,14.28,0,0,1-14.4,14.16Z"/><path class="cls-1" d="M4.73,6.59,5,6.27l.15-.14c0,.29-.08.58-.11.87a13.75,13.75,0,0,0,26.1,7.2l.1.78a14.11,14.11,0,0,1-13.89,7.91A14.28,14.28,0,0,1,4.66,7.22c0-.21,0-.42.07-.63Z"/><path class="cls-1" d="M29.61,9.36l.3.54A15.17,15.17,0,0,0,5.41,27c-.28-.29-.64-.67-.94-1s-.62-.81-.82-1.1a15.18,15.18,0,0,1-.41-7.42A15.75,15.75,0,0,1,21.84,5.22a16.16,16.16,0,0,1,7.4,3.54c.11.18.24.39.36.6Z"/><path class="cls-2" d="M21.54,7.2a1.74,1.74,0,1,1,1.74-1.74A1.74,1.74,0,0,1,21.54,7.2Z"/><path class="cls-2" d="M5.68,15.45a2,2,0,1,1,2-2,2,2,0,0,1-2,2Z"/><path class="cls-2" d="M9.59,28.51A1.37,1.37,0,1,1,11,27.14a1.37,1.37,0,0,1-1.37,1.37Z"/><path class="cls-2" d="M14.84,9.93A1.32,1.32,0,1,1,16.16,8.6a1.32,1.32,0,0,1-1.32,1.32Z"/><path class="cls-2" d="M26.61,22a2,2,0,1,1,2-2,2,2,0,0,1-2,2Z"/><path class="cls-1" d="M17.93,17.07A12.5,12.5,0,0,1,6.61,28.19l-.3-.29A12.11,12.11,0,0,0,7.61,4l.2-.13.29-.16a12.52,12.52,0,0,1,9.84,13.33Z"/><circle class="cls-3" cx="16.34" cy="16.34" r="15.84"/></g></g></svg>