<svg xmlns="http://www.w3.org/2000/svg" viewBox="0 0 24.85 37.6"><defs><style>.cls-1{fill:none;stroke:#fff;stroke-miterlimit:10;stroke-width:2px;}</style></defs><title>tile-rewards</title><g id="Layer_2" data-name="Layer 2"><g id="Layer_2-2" data-name="Layer 2"><path class="cls-1" d="M22.71,8.21l-1.65-1V5.33a1.79,1.79,0,0,0-1.78-1.78H17.36l-1-1.65A1.79,1.79,0,0,0,14,1.24l-1.66.95-1.66-.95a1.79,1.79,0,0,0-2.43.65l-1,1.65H5.33A1.79,1.79,0,0,0,3.55,5.33V7.24l-1.65,1a1.79,1.79,0,0,0-.65,2.43l.95,1.66L1.24,14a1.79,1.79,0,0,0,.65,2.43l1.65,1v1.91A1.79,1.79,0,0,0,5.33,21H7.24l1,1.65a1.79,1.79,0,0,0,2.43.65l1.66-.95,1.66.95a1.79,1.79,0,0,0,2.43-.65l1-1.65h1.91A1.79,1.79,0,0,0,21,19.27V17.36l1.65-1A1.79,1.79,0,0,0,23.36,14l-.95-1.66.95-1.66A1.79,1.79,0,0,0,22.71,8.21Zm-5,2.89-2.71,2,1,3.18A.67.67,0,0,1,15,17L12.3,15l-2.7,2a.67.67,0,0,1-1-.75l1-3.18-2.71-2a.67.67,0,0,1,.39-1.21h3.34l1-3.18a.67.67,0,0,1,1.27,0l1,3.18h3.34a.67.67,0,0,1,.39,1.21Z"/><line class="cls-1" x1="12.85" y1="25.6" x2="12.85" y2="32.6"/><line class="cls-1" x1="19.85" y1="32.6" x2="5.85" y2="32.6"/><line class="cls-1" x1="24.85" y1="36.6" x2="0.85" y2="36.6"/></g></g></svg>