<svg xmlns="http://www.w3.org/2000/svg" viewBox="0 0 31 31"><defs><style>.cls-1{fill:#fff;}.cls-2{fill:none;stroke:#fff;stroke-miterlimit:10;stroke-width:2px;}</style></defs><title>tile-overview</title><g id="Layer_2" data-name="Layer 2"><g id="Layer_2-2" data-name="Layer 2"><path class="cls-1" d="M16,5a2,2,0,0,1,0,4.1,2.06,2.06,0,0,1-2-2.07A2,2,0,0,1,16,5Z"/><path class="cls-1" d="M17.78,24a1.17,1.17,0,0,1-.28.49,3.77,3.77,0,0,1-2.69,1.21,8.79,8.79,0,0,1-1.48-.08,2.16,2.16,0,0,1-1.7-2.2c.1-.73.21-1.47.34-2.2.21-1.27,1.55-7.87,1.77-9.14a1.32,1.32,0,0,0,0-.25c0-.54-.17-.72-.69-.79A3.54,3.54,0,0,1,12.4,11a.48.48,0,0,1-.35-.51c0-.22.16-.36.45-.42A2.13,2.13,0,0,1,13,10h3.86c.48,0,.76.22.78.7a5.92,5.92,0,0,1-.13,1.19c-.25,1.45-1.63,8.23-1.89,9.69-.09.48-.19,1-.24,1.44a2,2,0,0,0,.07.7.54.54,0,0,0,.61.44,3.58,3.58,0,0,0,.76-.21c.2-.07.37-.21.58-.29A.32.32,0,0,1,17.78,24Z"/><rect class="cls-2" x="1" y="1" width="29" height="29" rx="4" ry="4"/></g></g></svg>