<svg xmlns="http://www.w3.org/2000/svg" viewBox="0 0 34 34"><defs><style>.cls-1{fill:none;stroke:#fff;stroke-miterlimit:10;stroke-width:2px;}.cls-2{fill:#fff;}</style></defs><title>tile-fees</title><g id="Layer_2" data-name="Layer 2"><g id="Layer_2-2" data-name="Layer 2"><circle class="cls-1" cx="17" cy="17" r="16"/><path class="cls-2" d="M13.34,24.41c-.22,0-.28-.1-.22-.22,2-4.53,6.21-14.43,6.39-14.86-1.27.06-4.43.34-4.77.32v0a3.56,3.56,0,0,1,1.31,2.89c0,1.84-1.09,3.86-3.48,3.86a3.37,3.37,0,0,1-3.36-3.56A3.61,3.61,0,0,1,12.82,9c3.44,0,7.16-.46,7.68-.46.08,0,.14,0,.14.08a2.9,2.9,0,0,1-.22.59L14.48,24c-.08.18-.1.22-.2.24ZM14.8,12.87c0-1.58-.75-3.29-2.18-3.29s-2.14,1.39-2.14,3,.71,3.27,2.18,3.27S14.8,14.48,14.8,12.87Zm3.13,7.74c0-1.86,1-3.86,3.5-3.86a3.39,3.39,0,0,1,3.36,3.56c0,1.84-1.07,3.86-3.5,3.86A3.37,3.37,0,0,1,17.93,20.61Zm5.6,0c0-1.58-.77-3.27-2.2-3.27s-2.14,1.37-2.14,3,.71,3.27,2.18,3.27S23.53,22.21,23.53,20.59Z"/></g></g></svg>