<svg xmlns="http://www.w3.org/2000/svg" viewBox="0 0 72.67 72.67"><defs><style>.cls-1,.cls-2{fill:#fff;}.cls-1{opacity:0.22;}</style></defs><title>img-login-lock</title><g id="Layer_2" data-name="Layer 2"><g id="Layer_1-2" data-name="Layer 1"><circle class="cls-1" cx="36.33" cy="36.33" r="36.33"/><path class="cls-2" d="M48.54,34a2,2,0,0,0-1.5-.62h-.71V29.13a10,10,0,0,0-9.89-9.89,10,10,0,0,0-9.9,9.89v4.24h-.7a2.12,2.12,0,0,0-2.12,2.12V48.21a2.11,2.11,0,0,0,2.12,2.12H47a2.11,2.11,0,0,0,2.12-2.12V35.49A2.05,2.05,0,0,0,48.54,34Zm-6.45-.62H30.78V29.13a5.65,5.65,0,0,1,9.65-4,5.45,5.45,0,0,1,1.66,4Z"/></g></g></svg>