<svg xmlns="http://www.w3.org/2000/svg" viewBox="0 0 15 14.95"><defs><style>.cls-1{fill:#b80000;}</style></defs><title>btn-dislike</title><g id="Layer_2" data-name="Layer 2"><g id="Layer_3" data-name="Layer 3"><g id="Like_2" data-name="Like 2"><path class="cls-1" d="M1.21,6.69a1.2,1.2,0,0,0-.15,2.39l4.25.53a7.75,7.75,0,0,0-.89,3.68A1.5,1.5,0,0,0,6.09,15c.48,0,.62-.94.62-.94h0a6.66,6.66,0,0,1,.75-2.09c.56-1.08,1.31-1,2.19-1.95a5,5,0,0,0,.57-.8.25.25,0,0,0,0-.08L10.32,9l.1-.19c.54-.55,3.11-.49,3.47-.49A1,1,0,0,0,15,7.2V2.14c0-.77-.31-1-1.11-1H11.07A5.45,5.45,0,0,1,9.41.56,14.29,14.29,0,0,0,4.78,0H3.1a1.34,1.34,0,0,0-.93.39A.71.71,0,0,0,2,.83s0,.19,0,.21a.9.9,0,0,0,.6,1h0L1.8,2A1.19,1.19,0,0,0,.53,3.21,1.16,1.16,0,0,0,1.7,4.34l-.38,0a1.18,1.18,0,0,0-.1,2.36Z"/></g></g></g></svg>