<svg xmlns="http://www.w3.org/2000/svg" viewBox="0 0 34 34"><defs><style>.cls-1{opacity:0.6;}.cls-2,.cls-3{fill:#fff;}.cls-2{opacity:0.22;}</style></defs><title>btn-lock-norm+pres</title><g id="Layer_2" data-name="Layer 2"><g id="Layer_1-2" data-name="Layer 1"><g class="cls-1"><circle class="cls-2" cx="17" cy="17" r="17"/><path class="cls-3" d="M22.71,15.9a1,1,0,0,0-.7-.29h-.33v-2A4.66,4.66,0,0,0,17,9a4.66,4.66,0,0,0-4.63,4.63v2h-.33a1,1,0,0,0-1,1v6a1,1,0,0,0,1,1H22a1,1,0,0,0,1-1v-6A1,1,0,0,0,22.71,15.9Zm-3-.29H14.4v-2a2.65,2.65,0,0,1,4.52-1.87,2.55,2.55,0,0,1,.78,1.87Z"/></g></g></g></svg>