<svg xmlns="http://www.w3.org/2000/svg" viewBox="0 0 20.4 21.4"><defs><style>.cls-1{fill:#fff;}.cls-2{fill:none;stroke:#fff;stroke-miterlimit:10;}</style></defs><title>sdb-support</title><g id="Layer_2" data-name="Layer 2"><g id="Layer_1-2" data-name="Layer 1"><path class="cls-1" d="M13.18,7.07a3.22,3.22,0,0,1-.28,1.49,4.78,4.78,0,0,1-1.11,1.23,9,9,0,0,0-1.18,1.15,1.51,1.51,0,0,0-.34,1v.56h-.8a2.62,2.62,0,0,1-.14-.89,1.64,1.64,0,0,1,.38-1,8.79,8.79,0,0,1,1.19-1.2A5.86,5.86,0,0,0,12,8.24,2.32,2.32,0,0,0,12.24,7a1.37,1.37,0,0,0-.54-1.19A3,3,0,0,0,10,5.44a9.19,9.19,0,0,0-2,.28l-.43.11L7.49,5a10.44,10.44,0,0,1,2.58-.45,3.88,3.88,0,0,1,2.34.58A2.22,2.22,0,0,1,13.18,7.07ZM9.34,15.48V13.94h1v1.55Z"/><path class="cls-2" d="M10.4.5A9.5,9.5,0,0,0,.9,10a10.08,10.08,0,0,0,2,5.5l-2,5,5-2a9.09,9.09,0,0,0,4.5,1,9.5,9.5,0,0,0,0-19Z"/></g></g></svg>