<svg xmlns="http://www.w3.org/2000/svg" viewBox="0 0 22.28 22"><defs><style>.cls-1{fill:#a1d6e6;}.cls-2{fill:#66cbcc;}.cls-3{fill:#666;}</style></defs><title>th-omnicoin</title><g id="Layer_2" data-name="Layer 2"><g id="Layer_2-2" data-name="Layer 2"><rect class="cls-1" x="17.54" y="1.29" width="3.49" height="3.49" transform="translate(3.5 14.52) rotate(-45)"/><rect class="cls-1" x="1.08" y="0.93" width="3.49" height="3.49" transform="translate(-1.06 2.78) rotate(-45.01)"/><rect class="cls-1" x="0.72" y="17.74" width="3.49" height="3.49" transform="translate(-13.06 7.46) rotate(-45.02)"/><rect class="cls-1" x="17.54" y="17.74" width="3.48" height="3.48" transform="translate(-8.13 19.35) rotate(-45.02)"/><polygon class="cls-2" points="19.42 11 22.28 11 22.28 5.71 19.42 11"/><polygon class="cls-2" points="13.69 5 16.28 5 16.28 0.35 13.69 5"/><polygon class="cls-2" points="11.28 2.67 11.28 0 6 0 11.28 2.67"/><polygon class="cls-2" points="5.28 8.39 5.28 5 0.28 5 5.28 8.39"/><polygon class="cls-2" points="8.15 17 5.28 17 5.28 21.81 8.15 17"/><polygon class="cls-2" points="2.78 11 0.28 11 0.28 16.09 2.78 11"/><polygon class="cls-2" points="11.28 19.4 11.28 22 16.11 22 11.28 19.4"/><polygon class="cls-2" points="16.28 14.03 16.28 17 21.48 17 16.28 14.03"/><circle class="cls-3" cx="9.04" cy="8.93" r="1.43"/><circle class="cls-3" cx="13.34" cy="8.93" r="1.43"/><circle class="cls-3" cx="9.04" cy="13.58" r="1.43"/><circle class="cls-3" cx="13.34" cy="13.58" r="1.43"/></g></g></svg>