<svg xmlns="http://www.w3.org/2000/svg" viewBox="0 0 252.25 44"><defs><style>.cls-1{fill:#fff;}.cls-2{fill:#29abe2;}.cls-3{fill:#add916;}</style></defs><title>logo-main</title><g id="Layer_2" data-name="Layer 2"><g id="Layer_1-2" data-name="Layer 1"><path class="cls-1" d="M68.89,33.15q-2.47,3.29-8.51,3.29t-8.51-3.29q-2.47-3.29-2.47-10.3t2.47-10.42Q54.34,9,60.38,9t8.51,3.41q2.47,3.41,2.47,10.42T68.89,33.15ZM56.08,29.72q1.15,2,4.3,2t4.3-2q1.15-2,1.15-6.85t-1.17-7Q63.5,13.7,60.38,13.7T56.1,15.88q-1.17,2.18-1.17,7T56.08,29.72Z"/><path class="cls-1" d="M80.71,36H75.49V16.5h5.18v1.09A9.61,9.61,0,0,1,85.27,16a6.35,6.35,0,0,1,4.87,1.83A14.58,14.58,0,0,1,96.68,16q3.85,0,5.35,2.24t1.5,7.15V36H98.31V25.58a9.33,9.33,0,0,0-.54-3.68,2.16,2.16,0,0,0-2.18-1.19,10.76,10.76,0,0,0-3,.54l-.58.2q.16,2.92.16,4.44V36H86.9V26a11.5,11.5,0,0,0-.51-4.07,2.15,2.15,0,0,0-2.22-1.19,8.62,8.62,0,0,0-3,.54l-.47.16Z"/><path class="cls-1" d="M113.38,36h-5.22V16.5h5.18v1.09A9.75,9.75,0,0,1,118.21,16q3.89,0,5.38,2.3t1.48,7.09V36h-5.22V25.58a8.74,8.74,0,0,0-.59-3.68,2.34,2.34,0,0,0-2.34-1.19,8.83,8.83,0,0,0-3.08.54l-.47.16Z"/><path class="cls-1" d="M129.7,14V8.71h5.22V14Zm0,22V16.5h5.22V36Z"/><path class="cls-1" d="M140.21,9.49h10.4q4.13,0,6.19,1.65t2.06,5.35A7.85,7.85,0,0,1,158.2,20a6.08,6.08,0,0,1-2.26,2.32,5.29,5.29,0,0,1,2.59,2.14,7.61,7.61,0,0,1,.84,3.89q0,3.86-2.26,5.72A9.7,9.7,0,0,1,150.77,36H140.21Zm10.13,4.59h-4.75V20.4h4.79q3,0,3-3.15T150.34,14.09Zm.16,10.83h-4.91v6.46h4.91a4,4,0,0,0,2.59-.7,3.23,3.23,0,0,0,.84-2.57Q153.92,24.92,150.49,24.92Z"/><path class="cls-1" d="M178.38,22.58v8.1a3.11,3.11,0,0,0,.31,1.3,1.45,1.45,0,0,0,1,.53l-.16,3.93a14.74,14.74,0,0,1-3.17-.27,7.15,7.15,0,0,1-2.39-1.09,13,13,0,0,1-5.72,1.36q-6,0-6-6.39,0-3.12,1.68-4.42A9.38,9.38,0,0,1,169,24.1l4.17-.31V22.58a2.06,2.06,0,0,0-.54-1.66,2.76,2.76,0,0,0-1.75-.45l-7.32.31-.15-3.62A30.34,30.34,0,0,1,171.31,16q3.76,0,5.41,1.56T178.38,22.58Zm-8.76,5.14a2.11,2.11,0,0,0-2.18,2.34q0,2.14,1.91,2.14a12.62,12.62,0,0,0,3.23-.47l.58-.16V27.41Z"/><path class="cls-1" d="M182.54,21.18V16.5H197v4.67L188.81,31.3H197V36H182.54V31.3l8.18-10.12Z"/><path class="cls-1" d="M216,22.58v8.1a3.11,3.11,0,0,0,.31,1.3,1.45,1.45,0,0,0,1,.53l-.15,3.93a14.74,14.74,0,0,1-3.17-.27,7.14,7.14,0,0,1-2.4-1.09,13,13,0,0,1-5.72,1.36q-6,0-6-6.39,0-3.12,1.67-4.42a9.39,9.39,0,0,1,5.14-1.54l4.17-.31V22.58a2.06,2.06,0,0,0-.54-1.66,2.77,2.77,0,0,0-1.75-.45l-7.32.31L201,17.17A30.35,30.35,0,0,1,208.89,16q3.76,0,5.41,1.56T216,22.58Zm-8.76,5.14A2.11,2.11,0,0,0,205,30.06q0,2.14,1.91,2.14a12.63,12.63,0,0,0,3.23-.47l.58-.16V27.41Z"/><path class="cls-1" d="M235.85,22.58v8.1a3.11,3.11,0,0,0,.31,1.3,1.45,1.45,0,0,0,1,.53L237,36.44a14.74,14.74,0,0,1-3.17-.27,7.14,7.14,0,0,1-2.4-1.09,13,13,0,0,1-5.72,1.36q-6,0-6-6.39,0-3.12,1.67-4.42a9.39,9.39,0,0,1,5.14-1.54l4.17-.31V22.58a2.06,2.06,0,0,0-.54-1.66,2.77,2.77,0,0,0-1.75-.45l-7.32.31-.16-3.62A30.35,30.35,0,0,1,228.79,16q3.76,0,5.41,1.56T235.85,22.58Zm-8.76,5.14a2.11,2.11,0,0,0-2.18,2.34q0,2.14,1.91,2.14a12.63,12.63,0,0,0,3.23-.47l.58-.16V27.41Z"/><path class="cls-1" d="M240.84,36V16.5H246v2.06A19.84,19.84,0,0,1,252.25,16v5.26q-3.15.66-5.41,1.36l-.78.27V36Z"/><circle class="cls-2" cx="22" cy="22" r="22"/><path class="cls-3" d="M22,0A21.9,21.9,0,0,0,12,2.41a22,22,0,0,1,0,39.19A22,22,0,1,0,22,0Z"/></g></g></svg>